{
	"patcher" : 	{
		"fileversion" : 1,
		"appversion" : 		{
			"major" : 7,
			"minor" : 1,
			"revision" : 0,
			"architecture" : "x86",
			"modernui" : 1
		}
,
		"rect" : [ -20.0, 79.0, 870.0, 1083.0 ],
		"bglocked" : 0,
		"openinpresentation" : 0,
		"default_fontsize" : 12.0,
		"default_fontface" : 0,
		"default_fontname" : "Arial",
		"gridonopen" : 1,
		"gridsize" : [ 15.0, 15.0 ],
		"gridsnaponopen" : 1,
		"objectsnaponopen" : 1,
		"statusbarvisible" : 2,
		"toolbarvisible" : 1,
		"lefttoolbarpinned" : 0,
		"toptoolbarpinned" : 0,
		"righttoolbarpinned" : 0,
		"bottomtoolbarpinned" : 0,
		"toolbars_unpinned_last_save" : 0,
		"tallnewobj" : 0,
		"boxanimatetime" : 200,
		"enablehscroll" : 1,
		"enablevscroll" : 1,
		"devicewidth" : 0.0,
		"description" : "",
		"digest" : "",
		"tags" : "",
		"style" : "",
		"subpatcher_template" : "",
		"boxes" : [ 			{
				"box" : 				{
					"id" : "obj-134",
					"maxclass" : "textbutton",
					"numinlets" : 1,
					"numoutlets" : 3,
					"outlettype" : [ "", "", "int" ],
					"parameter_enable" : 0,
					"patching_rect" : [ 391.0, 183.0, 100.0, 20.0 ],
					"presentation" : 1,
					"presentation_rect" : [ 22.0, 159.0, 68.0, 20.0 ],
					"style" : "",
					"text" : "Clear",
					"texton" : "Clear"
				}

			}
, 			{
				"box" : 				{
					"id" : "obj-125",
					"maxclass" : "newobj",
					"numinlets" : 2,
					"numoutlets" : 1,
					"outlettype" : [ "float" ],
					"patching_rect" : [ 39.5, 944.0, 29.5, 22.0 ],
					"style" : "",
					"text" : "* 1."
				}

			}
, 			{
				"box" : 				{
					"id" : "obj-124",
					"maxclass" : "newobj",
					"numinlets" : 2,
					"numoutlets" : 1,
					"outlettype" : [ "float" ],
					"patching_rect" : [ 39.5, 893.0, 47.0, 22.0 ],
					"style" : "",
					"text" : "/ 1000."
				}

			}
, 			{
				"box" : 				{
					"id" : "obj-123",
					"maxclass" : "newobj",
					"numinlets" : 0,
					"numoutlets" : 1,
					"outlettype" : [ "" ],
					"patching_rect" : [ 39.5, 814.0, 49.0, 22.0 ],
					"style" : "",
					"text" : "r metro"
				}

			}
, 			{
				"box" : 				{
					"id" : "obj-122",
					"maxclass" : "newobj",
					"numinlets" : 2,
					"numoutlets" : 2,
					"outlettype" : [ "float", "" ],
					"patching_rect" : [ 39.5, 856.0, 37.0, 22.0 ],
					"style" : "",
					"text" : "timer"
				}

			}
, 			{
				"box" : 				{
					"id" : "obj-104",
					"maxclass" : "newobj",
					"numinlets" : 2,
					"numoutlets" : 2,
					"outlettype" : [ "jit_gl_texture", "" ],
					"patching_rect" : [ 278.0, 378.0, 242.0, 22.0 ],
					"style" : "",
					"text" : "jit.gl.slab ctx @file op.add.jxs @type float64"
				}

			}
, 			{
				"box" : 				{
					"id" : "obj-100",
					"maxclass" : "newobj",
					"numinlets" : 1,
					"numoutlets" : 0,
					"patching_rect" : [ 877.0, 125.0, 50.0, 22.0 ],
					"style" : "",
					"text" : "print gs"
				}

			}
, 			{
				"box" : 				{
					"id" : "obj-96",
					"maxclass" : "newobj",
					"numinlets" : 1,
					"numoutlets" : 2,
					"outlettype" : [ "jit_matrix", "" ],
					"patching_rect" : [ 391.0, 223.5, 151.0, 22.0 ],
					"style" : "",
					"text" : "jit.matrix 4 float64 800 480"
				}

			}
, 			{
				"box" : 				{
					"id" : "obj-87",
					"maxclass" : "message",
					"numinlets" : 2,
					"numoutlets" : 1,
					"outlettype" : [ "" ],
					"patching_rect" : [ 511.0, 267.5, 45.0, 22.0 ],
					"style" : "",
					"text" : "zlclear"
				}

			}
, 			{
				"box" : 				{
					"id" : "obj-67",
					"maxclass" : "newobj",
					"numinlets" : 0,
					"numoutlets" : 1,
					"outlettype" : [ "" ],
					"patching_rect" : [ 327.0, 305.0, 61.0, 22.0 ],
					"style" : "",
					"text" : "r reaction"
				}

			}
, 			{
				"box" : 				{
					"id" : "obj-66",
					"maxclass" : "newobj",
					"numinlets" : 0,
					"numoutlets" : 1,
					"outlettype" : [ "" ],
					"patching_rect" : [ 501.0, 305.0, 62.0, 22.0 ],
					"style" : "",
					"text" : "r diffusion"
				}

			}
, 			{
				"box" : 				{
					"id" : "obj-64",
					"maxclass" : "newobj",
					"numinlets" : 0,
					"numoutlets" : 1,
					"outlettype" : [ "" ],
					"patching_rect" : [ 678.0, 46.0, 57.0, 22.0 ],
					"style" : "",
					"text" : "r reacdiff"
				}

			}
, 			{
				"box" : 				{
					"id" : "obj-62",
					"maxclass" : "button",
					"numinlets" : 1,
					"numoutlets" : 1,
					"outlettype" : [ "bang" ],
					"patching_rect" : [ 168.5, 267.5, 24.0, 24.0 ],
					"style" : ""
				}

			}
, 			{
				"box" : 				{
					"format" : 6,
					"id" : "obj-56",
					"maxclass" : "flonum",
					"numinlets" : 1,
					"numoutlets" : 2,
					"outlettype" : [ "", "bang" ],
					"parameter_enable" : 0,
					"patching_rect" : [ 168.5, 305.0, 50.0, 22.0 ],
					"style" : ""
				}

			}
, 			{
				"box" : 				{
					"format" : 6,
					"id" : "obj-54",
					"maxclass" : "flonum",
					"numinlets" : 1,
					"numoutlets" : 2,
					"outlettype" : [ "", "bang" ],
					"parameter_enable" : 0,
					"patching_rect" : [ 114.0, 305.0, 50.0, 22.0 ],
					"style" : ""
				}

			}
, 			{
				"box" : 				{
					"format" : 6,
					"id" : "obj-52",
					"maxclass" : "flonum",
					"numinlets" : 1,
					"numoutlets" : 2,
					"outlettype" : [ "", "bang" ],
					"parameter_enable" : 0,
					"patching_rect" : [ 59.5, 305.0, 50.0, 22.0 ],
					"style" : ""
				}

			}
, 			{
				"box" : 				{
					"id" : "obj-45",
					"maxclass" : "newobj",
					"numinlets" : 5,
					"numoutlets" : 1,
					"outlettype" : [ "" ],
					"patching_rect" : [ 62.5, 354.200012, 125.0, 22.0 ],
					"style" : "",
					"text" : "pack param m 0. 0. 0."
				}

			}
, 			{
				"box" : 				{
					"id" : "obj-13",
					"maxclass" : "newobj",
					"numinlets" : 1,
					"numoutlets" : 1,
					"outlettype" : [ "" ],
					"patching_rect" : [ 552.0, 980.0, 109.0, 22.0 ],
					"style" : "",
					"text" : "prepend param db"
				}

			}
, 			{
				"box" : 				{
					"id" : "obj-2",
					"maxclass" : "newobj",
					"numinlets" : 1,
					"numoutlets" : 1,
					"outlettype" : [ "" ],
					"patching_rect" : [ 410.5, 980.0, 109.0, 22.0 ],
					"style" : "",
					"text" : "prepend param da"
				}

			}
, 			{
				"box" : 				{
					"id" : "obj-75",
					"maxclass" : "newobj",
					"numinlets" : 1,
					"numoutlets" : 2,
					"outlettype" : [ "jit_gl_texture", "" ],
					"patcher" : 					{
						"fileversion" : 1,
						"appversion" : 						{
							"major" : 7,
							"minor" : 1,
							"revision" : 0,
							"architecture" : "x86",
							"modernui" : 1
						}
,
						"rect" : [ 408.0, 420.0, 600.0, 450.0 ],
						"editing_bgcolor" : [ 0.9, 0.9, 0.9, 1.0 ],
						"bglocked" : 0,
						"openinpresentation" : 0,
						"default_fontsize" : 12.0,
						"default_fontface" : 0,
						"default_fontname" : "Arial",
						"gridonopen" : 1,
						"gridsize" : [ 15.0, 15.0 ],
						"gridsnaponopen" : 1,
						"objectsnaponopen" : 1,
						"statusbarvisible" : 2,
						"toolbarvisible" : 1,
						"lefttoolbarpinned" : 0,
						"toptoolbarpinned" : 0,
						"righttoolbarpinned" : 0,
						"bottomtoolbarpinned" : 0,
						"toolbars_unpinned_last_save" : 0,
						"tallnewobj" : 0,
						"boxanimatetime" : 200,
						"enablehscroll" : 1,
						"enablevscroll" : 1,
						"devicewidth" : 0.0,
						"description" : "",
						"digest" : "",
						"tags" : "",
						"style" : "",
						"subpatcher_template" : "",
						"boxes" : [ 							{
								"box" : 								{
									"id" : "obj-7",
									"maxclass" : "newobj",
									"numinlets" : 0,
									"numoutlets" : 1,
									"outlettype" : [ "" ],
									"patching_rect" : [ 61.0, 86.0, 20.0, 22.0 ],
									"style" : "",
									"text" : "in"
								}

							}
, 							{
								"box" : 								{
									"code" : "Param m(0., 0., 0.);\r\n\r\nuv = sample(in, norm);\r\ndist = length(m.xy - (norm * dim).xy);\r\n\r\nif (dist < m.z) {\r\n\tuv = vec(uv.r, 0.9, 0);\r\n}\r\n\r\nout = uv;",
									"fontface" : 0,
									"fontname" : "Arial",
									"fontsize" : 12.0,
									"id" : "obj-2",
									"maxclass" : "codebox",
									"numinlets" : 1,
									"numoutlets" : 1,
									"outlettype" : [ "" ],
									"patching_rect" : [ 61.0, 124.0, 400.0, 200.0 ],
									"style" : ""
								}

							}
, 							{
								"box" : 								{
									"id" : "obj-4",
									"maxclass" : "newobj",
									"numinlets" : 1,
									"numoutlets" : 0,
									"patching_rect" : [ 61.0, 339.0, 27.0, 22.0 ],
									"style" : "",
									"text" : "out"
								}

							}
 ],
						"lines" : [ 							{
								"patchline" : 								{
									"destination" : [ "obj-4", 0 ],
									"disabled" : 0,
									"hidden" : 0,
									"source" : [ "obj-2", 0 ]
								}

							}
, 							{
								"patchline" : 								{
									"destination" : [ "obj-2", 0 ],
									"disabled" : 0,
									"hidden" : 0,
									"source" : [ "obj-7", 0 ]
								}

							}
 ]
					}
,
					"patching_rect" : [ 278.0, 430.0, 221.0, 22.0 ],
					"presentation" : 1,
					"presentation_linecount" : 2,
					"presentation_rect" : [ 18.0, 295.0, 167.0, 35.0 ],
					"style" : "",
					"text" : "jit.gl.pix ctx @t mousectrl @type float64"
				}

			}
, 			{
				"box" : 				{
					"id" : "obj-10",
					"maxclass" : "newobj",
					"numinlets" : 1,
					"numoutlets" : 2,
					"outlettype" : [ "jit_gl_texture", "" ],
					"patcher" : 					{
						"fileversion" : 1,
						"appversion" : 						{
							"major" : 7,
							"minor" : 1,
							"revision" : 0,
							"architecture" : "x86",
							"modernui" : 1
						}
,
						"rect" : [ 221.0, 270.0, 801.0, 687.0 ],
						"editing_bgcolor" : [ 0.9, 0.9, 0.9, 1.0 ],
						"bglocked" : 0,
						"openinpresentation" : 0,
						"default_fontsize" : 12.0,
						"default_fontface" : 0,
						"default_fontname" : "Arial",
						"gridonopen" : 1,
						"gridsize" : [ 15.0, 15.0 ],
						"gridsnaponopen" : 1,
						"objectsnaponopen" : 1,
						"statusbarvisible" : 2,
						"toolbarvisible" : 1,
						"lefttoolbarpinned" : 0,
						"toptoolbarpinned" : 0,
						"righttoolbarpinned" : 0,
						"bottomtoolbarpinned" : 0,
						"toolbars_unpinned_last_save" : 0,
						"tallnewobj" : 0,
						"boxanimatetime" : 200,
						"enablehscroll" : 1,
						"enablevscroll" : 1,
						"devicewidth" : 0.0,
						"description" : "",
						"digest" : "",
						"tags" : "",
						"style" : "",
						"subpatcher_template" : "",
						"boxes" : [ 							{
								"box" : 								{
									"id" : "obj-3",
									"maxclass" : "newobj",
									"numinlets" : 1,
									"numoutlets" : 0,
									"patching_rect" : [ 104.0, 456.0, 37.0, 22.0 ],
									"style" : "",
									"text" : "out 1"
								}

							}
, 							{
								"box" : 								{
									"id" : "obj-2",
									"maxclass" : "newobj",
									"numinlets" : 0,
									"numoutlets" : 1,
									"outlettype" : [ "" ],
									"patching_rect" : [ 104.0, 94.0, 30.0, 22.0 ],
									"style" : "",
									"text" : "in 1"
								}

							}
, 							{
								"box" : 								{
									"code" : "Param da(0.2097);\r\nParam db(0.105);\r\nParam f(0.054);\r\nParam k(0.062);\r\nParam dt(1.0);\r\n\r\nduv = 1. / dim;\r\n\r\nuv = sample(in, norm);\r\nleft = sample(in, norm + vec(-duv.x, 0.));\r\nright = sample(in, norm + vec(duv.x, 0.));\r\nup = sample(in, norm + vec(0., -duv.y));\r\ndown = sample(in, norm + vec(0., duv.y));\r\nlapl = left + right + up + down - 4. * uv;\r\n\r\nrgg = uv.r * uv.g * uv.g;\r\ndu = da * lapl.r - rgg + f * (1. - uv.r);\r\ndv = db * lapl.g + rgg + (f + k) * uv.g;\r\n \r\nout = (1. - dt) * uv + dt * vec(du, dv, 0);//lapl;//uv + dt * lapl;//vec(du, dv, 0);\r\n",
									"fontface" : 0,
									"fontname" : "Arial",
									"fontsize" : 12.0,
									"id" : "obj-1",
									"maxclass" : "codebox",
									"numinlets" : 1,
									"numoutlets" : 1,
									"outlettype" : [ "" ],
									"patching_rect" : [ 104.0, 130.0, 510.0, 309.400024 ],
									"style" : ""
								}

							}
 ],
						"lines" : [ 							{
								"patchline" : 								{
									"destination" : [ "obj-3", 0 ],
									"disabled" : 0,
									"hidden" : 0,
									"source" : [ "obj-1", 0 ]
								}

							}
, 							{
								"patchline" : 								{
									"destination" : [ "obj-1", 0 ],
									"disabled" : 0,
									"hidden" : 0,
									"source" : [ "obj-2", 0 ]
								}

							}
 ]
					}
,
					"patching_rect" : [ 678.0, 87.200012, 218.0, 22.0 ],
					"presentation" : 1,
					"presentation_linecount" : 2,
					"presentation_rect" : [ 3.0, 256.0, 167.0, 35.0 ],
					"style" : "",
					"text" : "jit.gl.pix ctx @t grayscott @type float64",
					"varname" : "rdpix"
				}

			}
, 			{
				"box" : 				{
					"id" : "obj-43",
					"maxclass" : "newobj",
					"numinlets" : 5,
					"numoutlets" : 1,
					"outlettype" : [ "" ],
					"patching_rect" : [ 455.5, 1015.0, 151.0, 22.0 ],
					"style" : "",
					"text" : "pak param amount 0. 0. 0."
				}

			}
, 			{
				"box" : 				{
					"id" : "obj-9",
					"maxclass" : "textbutton",
					"mode" : 1,
					"numinlets" : 1,
					"numoutlets" : 3,
					"outlettype" : [ "", "", "int" ],
					"parameter_enable" : 0,
					"patching_rect" : [ 168.5, 181.0, 100.0, 20.0 ],
					"presentation" : 1,
					"presentation_rect" : [ 22.0, 137.0, 68.0, 20.0 ],
					"style" : "",
					"text" : "Seed Off",
					"texton" : "Seed On"
				}

			}
, 			{
				"box" : 				{
					"id" : "obj-6",
					"linecount" : 6,
					"maxclass" : "comment",
					"numinlets" : 1,
					"numoutlets" : 0,
					"patching_rect" : [ 681.5, 690.200012, 225.0, 87.0 ],
					"style" : "",
					"text" : "TODO: \n- Fix precision errors.\n- Get rid of redundant \"float64\"'s.\n- Figure out default param order to get \n    rid of unnecessary @'s.\n- Make sliders update with numbers."
				}

			}
, 			{
				"box" : 				{
					"id" : "obj-116",
					"maxclass" : "newobj",
					"numinlets" : 1,
					"numoutlets" : 1,
					"outlettype" : [ "" ],
					"patching_rect" : [ 36.5, 1113.5, 209.0, 22.0 ],
					"style" : "",
					"text" : "loadmess read reaction-diffusion.json"
				}

			}
, 			{
				"box" : 				{
					"id" : "obj-114",
					"linecount" : 2,
					"maxclass" : "comment",
					"numinlets" : 1,
					"numoutlets" : 0,
					"patching_rect" : [ 752.0, 1340.0, 152.0, 33.0 ],
					"presentation" : 1,
					"presentation_linecount" : 2,
					"presentation_rect" : [ 581.5, 14.0, 156.0, 33.0 ],
					"style" : "",
					"text" : "2016 Brandon Mechtley\nfor synthesis.ame.asu.edu",
					"textjustification" : 2
				}

			}
, 			{
				"box" : 				{
					"fontsize" : 36.0,
					"id" : "obj-112",
					"maxclass" : "comment",
					"numinlets" : 1,
					"numoutlets" : 0,
					"patching_rect" : [ 36.5, 1340.0, 713.5, 47.0 ],
					"presentation" : 1,
					"presentation_rect" : [ 16.5, 14.0, 498.0, 47.0 ],
					"style" : "",
					"text" : "Gray-Scott Reaction Diffusion"
				}

			}
, 			{
				"box" : 				{
					"id" : "obj-109",
					"maxclass" : "textbutton",
					"mode" : 1,
					"numinlets" : 1,
					"numoutlets" : 3,
					"outlettype" : [ "", "", "int" ],
					"parameter_enable" : 0,
					"patching_rect" : [ 820.0, 893.5, 71.0, 19.5 ],
					"presentation" : 1,
					"presentation_rect" : [ 22.0, 214.0, 68.0, 19.5 ],
					"style" : "",
					"text" : "Fullscreen",
					"texton" : "Fullscreen"
				}

			}
, 			{
				"box" : 				{
					"floatoutput" : 1,
					"id" : "obj-103",
					"maxclass" : "slider",
					"numinlets" : 1,
					"numoutlets" : 1,
					"outlettype" : [ "" ],
					"parameter_enable" : 0,
					"patching_rect" : [ 94.5, 814.0, 105.0, 22.0 ],
					"presentation" : 1,
					"presentation_rect" : [ 204.0, 211.0, 445.0, 22.0 ],
					"size" : 50.0,
					"style" : "default"
				}

			}
, 			{
				"box" : 				{
					"id" : "obj-102",
					"maxclass" : "newobj",
					"numinlets" : 1,
					"numoutlets" : 1,
					"outlettype" : [ "" ],
					"patching_rect" : [ 341.0, 1152.0, 228.0, 22.0 ],
					"style" : "",
					"text" : "if $i1 == 1 then \"write 60. h264\" else stop"
				}

			}
, 			{
				"box" : 				{
					"id" : "obj-97",
					"maxclass" : "textbutton",
					"mode" : 1,
					"numinlets" : 1,
					"numoutlets" : 3,
					"outlettype" : [ "", "", "int" ],
					"parameter_enable" : 0,
					"patching_rect" : [ 341.0, 1121.0, 100.0, 20.0 ],
					"presentation" : 1,
					"presentation_rect" : [ 22.0, 192.0, 68.0, 20.0 ],
					"style" : "",
					"text" : "Record",
					"texton" : "Stop",
					"tosymbol" : 0
				}

			}
, 			{
				"box" : 				{
					"id" : "obj-91",
					"maxclass" : "newobj",
					"numinlets" : 1,
					"numoutlets" : 0,
					"patching_rect" : [ 410.5, 1062.0, 64.0, 22.0 ],
					"style" : "",
					"text" : "s diffusion"
				}

			}
, 			{
				"box" : 				{
					"id" : "obj-88",
					"maxclass" : "newobj",
					"numinlets" : 1,
					"numoutlets" : 0,
					"patching_rect" : [ 160.5, 1044.0, 63.0, 22.0 ],
					"style" : "",
					"text" : "s reaction"
				}

			}
, 			{
				"box" : 				{
					"id" : "obj-85",
					"maxclass" : "textbutton",
					"mode" : 1,
					"numinlets" : 1,
					"numoutlets" : 3,
					"outlettype" : [ "", "", "int" ],
					"parameter_enable" : 0,
					"patching_rect" : [ 731.0, 893.5, 57.5, 19.5 ],
					"presentation" : 1,
					"presentation_rect" : [ 22.0, 115.0, 68.0, 20.0 ],
					"style" : "",
					"text" : "Run",
					"texton" : "Pause"
				}

			}
, 			{
				"box" : 				{
					"id" : "obj-82",
					"maxclass" : "newobj",
					"numinlets" : 1,
					"numoutlets" : 2,
					"outlettype" : [ "jit_matrix", "" ],
					"patching_rect" : [ 278.0, 492.200012, 221.0, 22.0 ],
					"style" : "",
					"text" : "jit.gl.videoplane ctx @transform_reset 2"
				}

			}
, 			{
				"box" : 				{
					"id" : "obj-81",
					"maxclass" : "newobj",
					"numinlets" : 1,
					"numoutlets" : 2,
					"outlettype" : [ "jit_gl_texture", "" ],
					"patcher" : 					{
						"fileversion" : 1,
						"appversion" : 						{
							"major" : 7,
							"minor" : 1,
							"revision" : 0,
							"architecture" : "x86",
							"modernui" : 1
						}
,
						"rect" : [ 646.0, 145.0, 600.0, 450.0 ],
						"editing_bgcolor" : [ 0.9, 0.9, 0.9, 1.0 ],
						"bglocked" : 0,
						"openinpresentation" : 0,
						"default_fontsize" : 12.0,
						"default_fontface" : 0,
						"default_fontname" : "Arial",
						"gridonopen" : 1,
						"gridsize" : [ 15.0, 15.0 ],
						"gridsnaponopen" : 1,
						"objectsnaponopen" : 1,
						"statusbarvisible" : 2,
						"toolbarvisible" : 1,
						"lefttoolbarpinned" : 0,
						"toptoolbarpinned" : 0,
						"righttoolbarpinned" : 0,
						"bottomtoolbarpinned" : 0,
						"toolbars_unpinned_last_save" : 0,
						"tallnewobj" : 0,
						"boxanimatetime" : 200,
						"enablehscroll" : 1,
						"enablevscroll" : 1,
						"devicewidth" : 0.0,
						"description" : "",
						"digest" : "",
						"tags" : "",
						"style" : "",
						"subpatcher_template" : "",
						"boxes" : [ 							{
								"box" : 								{
									"code" : "Param c1(0., 0., 0.);\r\nParam c2(0., 1., 0.);\r\nParam c3(1., 1., 0.);\r\nParam c4(1., 0., 0.);\r\nParam c5(1., 1., 1.);\r\n\r\ng = sample(in, norm).g;\r\n\r\n\r\nif (g >= 0.4) {\r\n\tout = mix(c4, c5, (g - 0.4) / 0.6);\r\n} else if (g >= 0.21) {\r\n\tout = mix(c3, c4, (g - 0.21) / 0.19);\r\n} else if (g >= 0.2) {\r\n\tout = mix(c2, c3, (g - 0.2) / 0.01);\r\n} else {\r\n\tout = mix(c1, c2, g / 0.2);\r\n}\r\n",
									"fontface" : 0,
									"fontname" : "Arial",
									"fontsize" : 12.0,
									"id" : "obj-23",
									"maxclass" : "codebox",
									"numinlets" : 1,
									"numoutlets" : 1,
									"outlettype" : [ "" ],
									"patching_rect" : [ 50.0, 86.0, 431.0, 307.0 ],
									"style" : ""
								}

							}
, 							{
								"box" : 								{
									"id" : "obj-1",
									"maxclass" : "newobj",
									"numinlets" : 0,
									"numoutlets" : 1,
									"outlettype" : [ "" ],
									"patching_rect" : [ 50.0, 14.0, 20.0, 22.0 ],
									"style" : "",
									"text" : "in"
								}

							}
, 							{
								"box" : 								{
									"id" : "obj-4",
									"maxclass" : "newobj",
									"numinlets" : 1,
									"numoutlets" : 0,
									"patching_rect" : [ 50.0, 411.0, 27.0, 22.0 ],
									"style" : "",
									"text" : "out"
								}

							}
 ],
						"lines" : [ 							{
								"patchline" : 								{
									"destination" : [ "obj-23", 0 ],
									"disabled" : 0,
									"hidden" : 0,
									"source" : [ "obj-1", 0 ]
								}

							}
, 							{
								"patchline" : 								{
									"destination" : [ "obj-4", 0 ],
									"disabled" : 0,
									"hidden" : 0,
									"source" : [ "obj-23", 0 ]
								}

							}
 ]
					}
,
					"patching_rect" : [ 278.0, 462.200012, 141.0, 22.0 ],
					"style" : "",
					"text" : "jit.gl.pix ctx @t colormap"
				}

			}
, 			{
				"box" : 				{
					"id" : "obj-50",
					"maxclass" : "newobj",
					"numinlets" : 2,
					"numoutlets" : 2,
					"outlettype" : [ "jit_gl_texture", "" ],
					"patching_rect" : [ 299.0, 267.5, 76.0, 22.0 ],
					"style" : "",
					"text" : "jit.gl.slab ctx"
				}

			}
, 			{
				"box" : 				{
					"id" : "obj-47",
					"maxclass" : "newobj",
					"numinlets" : 2,
					"numoutlets" : 2,
					"outlettype" : [ "", "" ],
					"patching_rect" : [ 278.0, 305.0, 40.0, 22.0 ],
					"style" : "",
					"text" : "zl reg"
				}

			}
, 			{
				"box" : 				{
					"id" : "obj-4",
					"maxclass" : "newobj",
					"numinlets" : 1,
					"numoutlets" : 2,
					"outlettype" : [ "jit_gl_texture", "" ],
					"patcher" : 					{
						"fileversion" : 1,
						"appversion" : 						{
							"major" : 7,
							"minor" : 1,
							"revision" : 0,
							"architecture" : "x86",
							"modernui" : 1
						}
,
						"rect" : [ 629.0, 332.0, 956.0, 974.0 ],
						"editing_bgcolor" : [ 0.9, 0.9, 0.9, 1.0 ],
						"bglocked" : 0,
						"openinpresentation" : 0,
						"default_fontsize" : 12.0,
						"default_fontface" : 0,
						"default_fontname" : "Arial",
						"gridonopen" : 1,
						"gridsize" : [ 15.0, 15.0 ],
						"gridsnaponopen" : 1,
						"objectsnaponopen" : 1,
						"statusbarvisible" : 2,
						"toolbarvisible" : 1,
						"lefttoolbarpinned" : 0,
						"toptoolbarpinned" : 0,
						"righttoolbarpinned" : 0,
						"bottomtoolbarpinned" : 0,
						"toolbars_unpinned_last_save" : 0,
						"tallnewobj" : 0,
						"boxanimatetime" : 200,
						"enablehscroll" : 1,
						"enablevscroll" : 1,
						"devicewidth" : 0.0,
						"description" : "",
						"digest" : "",
						"tags" : "",
						"style" : "",
						"subpatcher_template" : "",
						"boxes" : [ 							{
								"box" : 								{
									"id" : "obj-2",
									"maxclass" : "newobj",
									"numinlets" : 1,
									"numoutlets" : 0,
									"patching_rect" : [ 39.324951, 330.0, 27.0, 22.0 ],
									"style" : "",
									"text" : "out"
								}

							}
, 							{
								"box" : 								{
									"code" : "Param dt(1.0);\r\nParam f(0.054);\r\nParam k(0.062);\r\n\r\nduv = 1. / dim;\r\nuv = sample(in, norm);\r\nrgg = uv.r * uv.g * uv.g;\r\n\r\ndu = -rgg + f * (1. - uv.r);\r\ndv = rgg + (f + k) * uv.g;\r\n\r\nout = dt * vec(du, dv);\r\n",
									"fontface" : 0,
									"fontname" : "Arial",
									"fontsize" : 12.0,
									"id" : "obj-1",
									"maxclass" : "codebox",
									"numinlets" : 1,
									"numoutlets" : 1,
									"outlettype" : [ "" ],
									"patching_rect" : [ 39.324951, 69.0, 254.0, 240.0 ],
									"style" : ""
								}

							}
, 							{
								"box" : 								{
									"id" : "obj-9",
									"maxclass" : "newobj",
									"numinlets" : 0,
									"numoutlets" : 1,
									"outlettype" : [ "" ],
									"patching_rect" : [ 39.324951, 27.0, 20.0, 22.0 ],
									"style" : "",
									"text" : "in"
								}

							}
 ],
						"lines" : [ 							{
								"patchline" : 								{
									"destination" : [ "obj-2", 0 ],
									"disabled" : 0,
									"hidden" : 0,
									"source" : [ "obj-1", 0 ]
								}

							}
, 							{
								"patchline" : 								{
									"destination" : [ "obj-1", 0 ],
									"disabled" : 0,
									"hidden" : 0,
									"source" : [ "obj-9", 0 ]
								}

							}
 ]
					}
,
					"patching_rect" : [ 278.0, 340.0, 196.0, 22.0 ],
					"style" : "",
					"text" : "jit.gl.pix ctx @t react @type float64"
				}

			}
, 			{
				"box" : 				{
					"id" : "obj-3",
					"maxclass" : "newobj",
					"numinlets" : 1,
					"numoutlets" : 2,
					"outlettype" : [ "jit_gl_texture", "" ],
					"patcher" : 					{
						"fileversion" : 1,
						"appversion" : 						{
							"major" : 7,
							"minor" : 1,
							"revision" : 0,
							"architecture" : "x86",
							"modernui" : 1
						}
,
						"rect" : [ 705.0, 506.0, 848.0, 458.0 ],
						"editing_bgcolor" : [ 0.9, 0.9, 0.9, 1.0 ],
						"bglocked" : 0,
						"openinpresentation" : 0,
						"default_fontsize" : 12.0,
						"default_fontface" : 0,
						"default_fontname" : "Arial",
						"gridonopen" : 1,
						"gridsize" : [ 15.0, 15.0 ],
						"gridsnaponopen" : 1,
						"objectsnaponopen" : 1,
						"statusbarvisible" : 2,
						"toolbarvisible" : 1,
						"lefttoolbarpinned" : 0,
						"toptoolbarpinned" : 0,
						"righttoolbarpinned" : 0,
						"bottomtoolbarpinned" : 0,
						"toolbars_unpinned_last_save" : 0,
						"tallnewobj" : 0,
						"boxanimatetime" : 200,
						"enablehscroll" : 1,
						"enablevscroll" : 1,
						"devicewidth" : 0.0,
						"description" : "",
						"digest" : "",
						"tags" : "",
						"style" : "",
						"subpatcher_template" : "",
						"boxes" : [ 							{
								"box" : 								{
									"id" : "obj-4",
									"maxclass" : "newobj",
									"numinlets" : 1,
									"numoutlets" : 0,
									"patching_rect" : [ 37.0, 350.0, 27.0, 22.0 ],
									"style" : "",
									"text" : "out"
								}

							}
, 							{
								"box" : 								{
									"id" : "obj-3",
									"maxclass" : "newobj",
									"numinlets" : 0,
									"numoutlets" : 1,
									"outlettype" : [ "" ],
									"patching_rect" : [ 37.0, 42.0, 20.0, 22.0 ],
									"style" : "",
									"text" : "in"
								}

							}
, 							{
								"box" : 								{
									"code" : "Param amount(0.5, 0.5, 0.);\r\nParam dt(1.0);\r\n\r\nduv = 1. / dim;\r\n\r\nuv = sample(in, norm);\r\nu = sample(in, norm + vec(0., -duv.y));\r\nd = sample(in, norm + vec(0., duv.y));\r\nl = sample(in, norm + vec(-duv.x, 0.));\r\nr = sample(in, norm + vec(duv.x, 0.));\r\n\r\nlapl = u + d + l + r - 4. * uv;\r\n\r\nout = uv + dt * amount * lapl;",
									"fontface" : 0,
									"fontname" : "Arial",
									"fontsize" : 12.0,
									"id" : "obj-1",
									"maxclass" : "codebox",
									"numinlets" : 1,
									"numoutlets" : 1,
									"outlettype" : [ "" ],
									"patching_rect" : [ 37.0, 75.0, 311.0, 264.0 ],
									"style" : ""
								}

							}
 ],
						"lines" : [ 							{
								"patchline" : 								{
									"destination" : [ "obj-4", 0 ],
									"disabled" : 0,
									"hidden" : 0,
									"source" : [ "obj-1", 0 ]
								}

							}
, 							{
								"patchline" : 								{
									"destination" : [ "obj-1", 0 ],
									"disabled" : 0,
									"hidden" : 0,
									"source" : [ "obj-3", 0 ]
								}

							}
 ]
					}
,
					"patching_rect" : [ 501.0, 340.0, 204.0, 22.0 ],
					"style" : "",
					"text" : "jit.gl.pix ctx @t diffuse @type float64"
				}

			}
, 			{
				"box" : 				{
					"id" : "obj-44",
					"maxclass" : "newobj",
					"numinlets" : 2,
					"numoutlets" : 1,
					"outlettype" : [ "" ],
					"patching_rect" : [ 168.5, 223.5, 34.0, 22.0 ],
					"style" : "",
					"text" : "gate"
				}

			}
, 			{
				"box" : 				{
					"id" : "obj-5",
					"maxclass" : "message",
					"numinlets" : 2,
					"numoutlets" : 1,
					"outlettype" : [ "" ],
					"patching_rect" : [ 195.5, 1151.0, 50.0, 22.0 ],
					"presentation" : 1,
					"presentation_rect" : [ 108.0, 213.0, 35.0, 22.0 ],
					"style" : "",
					"text" : "read"
				}

			}
, 			{
				"box" : 				{
					"id" : "obj-40",
					"maxclass" : "newobj",
					"numinlets" : 2,
					"numoutlets" : 2,
					"outlettype" : [ "bang", "" ],
					"patching_rect" : [ 820.0, 857.0, 43.0, 22.0 ],
					"style" : "",
					"text" : "sel 27"
				}

			}
, 			{
				"box" : 				{
					"id" : "obj-36",
					"maxclass" : "newobj",
					"numinlets" : 0,
					"numoutlets" : 4,
					"outlettype" : [ "int", "int", "int", "int" ],
					"patching_rect" : [ 820.0, 822.0, 50.5, 22.0 ],
					"style" : "",
					"text" : "key"
				}

			}
, 			{
				"box" : 				{
					"fontface" : 0,
					"fontname" : "Arial",
					"fontsize" : 12.0,
					"id" : "obj-11",
					"maxclass" : "jit.fpsgui",
					"numinlets" : 1,
					"numoutlets" : 2,
					"outlettype" : [ "", "" ],
					"patching_rect" : [ 731.0, 967.0, 80.0, 35.0 ],
					"presentation" : 1,
					"presentation_rect" : [ 665.0, 67.0, 68.0, 35.0 ],
					"style" : ""
				}

			}
, 			{
				"box" : 				{
					"id" : "obj-1",
					"maxclass" : "newobj",
					"numinlets" : 2,
					"numoutlets" : 1,
					"outlettype" : [ "bang" ],
					"patcher" : 					{
						"fileversion" : 1,
						"appversion" : 						{
							"major" : 7,
							"minor" : 1,
							"revision" : 0,
							"architecture" : "x86",
							"modernui" : 1
						}
,
						"rect" : [ 460.0, 153.0, 640.0, 480.0 ],
						"bglocked" : 0,
						"openinpresentation" : 0,
						"default_fontsize" : 12.0,
						"default_fontface" : 0,
						"default_fontname" : "Arial",
						"gridonopen" : 1,
						"gridsize" : [ 15.0, 15.0 ],
						"gridsnaponopen" : 1,
						"objectsnaponopen" : 1,
						"statusbarvisible" : 2,
						"toolbarvisible" : 1,
						"lefttoolbarpinned" : 0,
						"toptoolbarpinned" : 0,
						"righttoolbarpinned" : 0,
						"bottomtoolbarpinned" : 0,
						"toolbars_unpinned_last_save" : 0,
						"tallnewobj" : 0,
						"boxanimatetime" : 200,
						"enablehscroll" : 1,
						"enablevscroll" : 1,
						"devicewidth" : 0.0,
						"description" : "",
						"digest" : "",
						"tags" : "",
						"style" : "",
						"subpatcher_template" : "",
						"boxes" : [ 							{
								"box" : 								{
									"attr" : "pos",
									"id" : "obj-1",
									"maxclass" : "attrui",
									"numinlets" : 1,
									"numoutlets" : 1,
									"outlettype" : [ "" ],
									"patching_rect" : [ 334.0, 181.0, 273.0, 22.0 ],
									"style" : ""
								}

							}
, 							{
								"box" : 								{
									"comment" : "",
									"id" : "obj-14",
									"maxclass" : "outlet",
									"numinlets" : 1,
									"numoutlets" : 0,
									"patching_rect" : [ 155.0, 417.0, 30.0, 30.0 ],
									"style" : "",
									"varname" : "u759002104"
								}

							}
, 							{
								"box" : 								{
									"comment" : "",
									"id" : "obj-13",
									"maxclass" : "inlet",
									"numinlets" : 0,
									"numoutlets" : 1,
									"outlettype" : [ "" ],
									"patching_rect" : [ 249.0, 88.0, 30.0, 30.0 ],
									"style" : "",
									"varname" : "u343002103"
								}

							}
, 							{
								"box" : 								{
									"id" : "obj-6",
									"maxclass" : "newobj",
									"numinlets" : 1,
									"numoutlets" : 0,
									"patching_rect" : [ 381.0, 376.0, 56.0, 22.0 ],
									"style" : "",
									"text" : "s mouse"
								}

							}
, 							{
								"box" : 								{
									"comment" : "",
									"id" : "obj-2",
									"maxclass" : "inlet",
									"numinlets" : 0,
									"numoutlets" : 1,
									"outlettype" : [ "" ],
									"patching_rect" : [ 155.0, 88.0, 30.0, 30.0 ],
									"style" : "",
									"varname" : "u063002105"
								}

							}
, 							{
								"box" : 								{
									"id" : "obj-49",
									"maxclass" : "toggle",
									"numinlets" : 1,
									"numoutlets" : 1,
									"outlettype" : [ "int" ],
									"parameter_enable" : 0,
									"patching_rect" : [ 249.0, 217.0, 24.0, 24.0 ],
									"style" : ""
								}

							}
, 							{
								"box" : 								{
									"id" : "obj-47",
									"maxclass" : "message",
									"numinlets" : 2,
									"numoutlets" : 1,
									"outlettype" : [ "" ],
									"patching_rect" : [ 249.0, 252.0, 79.0, 22.0 ],
									"style" : "",
									"text" : "fullscreen $1"
								}

							}
, 							{
								"box" : 								{
									"id" : "obj-9",
									"maxclass" : "newobj",
									"numinlets" : 2,
									"numoutlets" : 2,
									"outlettype" : [ "", "" ],
									"patching_rect" : [ 381.0, 341.0, 105.0, 22.0 ],
									"style" : "",
									"text" : "route mouse"
								}

							}
, 							{
								"box" : 								{
									"id" : "obj-61",
									"maxclass" : "newobj",
									"numinlets" : 1,
									"numoutlets" : 0,
									"patching_rect" : [ 95.0, 252.0, 51.0, 22.0 ],
									"style" : "",
									"text" : "s metro"
								}

							}
, 							{
								"box" : 								{
									"id" : "obj-11",
									"maxclass" : "newobj",
									"numinlets" : 1,
									"numoutlets" : 2,
									"outlettype" : [ "bang", "" ],
									"patching_rect" : [ 249.0, 309.0, 165.0, 22.0 ],
									"style" : "",
									"text" : "jit.window ctx @size 800 480"
								}

							}
, 							{
								"box" : 								{
									"id" : "obj-5",
									"maxclass" : "newobj",
									"numinlets" : 2,
									"numoutlets" : 1,
									"outlettype" : [ "bang" ],
									"patching_rect" : [ 155.0, 138.0, 58.0, 22.0 ],
									"style" : "",
									"text" : "qmetro 1"
								}

							}
, 							{
								"box" : 								{
									"id" : "obj-4",
									"maxclass" : "newobj",
									"numinlets" : 1,
									"numoutlets" : 2,
									"outlettype" : [ "bang", "erase" ],
									"patching_rect" : [ 155.0, 171.0, 89.0, 22.0 ],
									"style" : "",
									"text" : "t b erase"
								}

							}
, 							{
								"box" : 								{
									"id" : "obj-3",
									"maxclass" : "newobj",
									"numinlets" : 1,
									"numoutlets" : 2,
									"outlettype" : [ "bang", "" ],
									"patching_rect" : [ 155.0, 252.0, 89.0, 22.0 ],
									"style" : "",
									"text" : "jit.gl.render ctx"
								}

							}
 ],
						"lines" : [ 							{
								"patchline" : 								{
									"destination" : [ "obj-11", 0 ],
									"disabled" : 0,
									"hidden" : 0,
									"source" : [ "obj-1", 0 ]
								}

							}
, 							{
								"patchline" : 								{
									"destination" : [ "obj-9", 0 ],
									"disabled" : 0,
									"hidden" : 0,
									"source" : [ "obj-11", 1 ]
								}

							}
, 							{
								"patchline" : 								{
									"destination" : [ "obj-49", 0 ],
									"disabled" : 0,
									"hidden" : 0,
									"midpoints" : [ 258.5, 204.0, 258.5, 204.0 ],
									"source" : [ "obj-13", 0 ]
								}

							}
, 							{
								"patchline" : 								{
									"destination" : [ "obj-5", 0 ],
									"disabled" : 0,
									"hidden" : 0,
									"source" : [ "obj-2", 0 ]
								}

							}
, 							{
								"patchline" : 								{
									"destination" : [ "obj-14", 0 ],
									"disabled" : 0,
									"hidden" : 0,
									"source" : [ "obj-3", 0 ]
								}

							}
, 							{
								"patchline" : 								{
									"destination" : [ "obj-3", 0 ],
									"disabled" : 0,
									"hidden" : 0,
									"source" : [ "obj-4", 1 ]
								}

							}
, 							{
								"patchline" : 								{
									"destination" : [ "obj-3", 0 ],
									"disabled" : 0,
									"hidden" : 0,
									"source" : [ "obj-4", 0 ]
								}

							}
, 							{
								"patchline" : 								{
									"destination" : [ "obj-61", 0 ],
									"disabled" : 0,
									"hidden" : 0,
									"source" : [ "obj-4", 0 ]
								}

							}
, 							{
								"patchline" : 								{
									"destination" : [ "obj-11", 0 ],
									"disabled" : 0,
									"hidden" : 0,
									"source" : [ "obj-47", 0 ]
								}

							}
, 							{
								"patchline" : 								{
									"destination" : [ "obj-47", 0 ],
									"disabled" : 0,
									"hidden" : 0,
									"source" : [ "obj-49", 0 ]
								}

							}
, 							{
								"patchline" : 								{
									"destination" : [ "obj-4", 0 ],
									"disabled" : 0,
									"hidden" : 0,
									"source" : [ "obj-5", 0 ]
								}

							}
, 							{
								"patchline" : 								{
									"destination" : [ "obj-6", 0 ],
									"disabled" : 0,
									"hidden" : 0,
									"source" : [ "obj-9", 0 ]
								}

							}
 ]
					}
,
					"patching_rect" : [ 731.0, 933.0, 108.0, 22.0 ],
					"saved_object_attributes" : 					{
						"description" : "",
						"digest" : "",
						"globalpatchername" : "",
						"style" : "",
						"tags" : ""
					}
,
					"style" : "",
					"text" : "p window 800 480"
				}

			}
, 			{
				"box" : 				{
					"id" : "obj-42",
					"maxclass" : "newobj",
					"numinlets" : 1,
					"numoutlets" : 2,
					"outlettype" : [ "jit_matrix", "" ],
					"patching_rect" : [ 276.0, 1121.0, 55.0, 22.0 ],
					"style" : "",
					"text" : "jit.matrix"
				}

			}
, 			{
				"box" : 				{
					"id" : "obj-78",
					"maxclass" : "newobj",
					"numinlets" : 1,
					"numoutlets" : 0,
					"patching_rect" : [ 374.0, 1220.0, 34.0, 22.0 ],
					"style" : "",
					"text" : "print"
				}

			}
, 			{
				"box" : 				{
					"id" : "obj-37",
					"maxclass" : "newobj",
					"numinlets" : 1,
					"numoutlets" : 2,
					"outlettype" : [ "jit_matrix", "" ],
					"patching_rect" : [ 276.0, 1188.0, 117.0, 22.0 ],
					"style" : "",
					"text" : "jit.qt.record 800 480"
				}

			}
, 			{
				"box" : 				{
					"floatoutput" : 1,
					"id" : "obj-156",
					"maxclass" : "slider",
					"numinlets" : 1,
					"numoutlets" : 1,
					"outlettype" : [ "" ],
					"parameter_enable" : 0,
					"patching_rect" : [ 556.5, 902.0, 135.0, 21.0 ],
					"presentation" : 1,
					"presentation_rect" : [ 204.0, 139.0, 445.0, 22.0 ],
					"size" : 2.0,
					"style" : ""
				}

			}
, 			{
				"box" : 				{
					"floatoutput" : 1,
					"id" : "obj-155",
					"maxclass" : "slider",
					"numinlets" : 1,
					"numoutlets" : 1,
					"outlettype" : [ "" ],
					"parameter_enable" : 0,
					"patching_rect" : [ 410.5, 902.0, 135.0, 21.0 ],
					"presentation" : 1,
					"presentation_rect" : [ 204.0, 115.0, 445.0, 22.0 ],
					"size" : 2.0,
					"style" : ""
				}

			}
, 			{
				"box" : 				{
					"floatoutput" : 1,
					"id" : "obj-20",
					"maxclass" : "slider",
					"numinlets" : 1,
					"numoutlets" : 1,
					"outlettype" : [ "" ],
					"parameter_enable" : 0,
					"patching_rect" : [ 274.5, 902.0, 101.0, 22.0 ],
					"presentation" : 1,
					"presentation_rect" : [ 204.0, 187.0, 445.0, 22.0 ],
					"size" : 1.0,
					"style" : ""
				}

			}
, 			{
				"box" : 				{
					"floatoutput" : 1,
					"id" : "obj-18",
					"maxclass" : "slider",
					"numinlets" : 1,
					"numoutlets" : 1,
					"outlettype" : [ "" ],
					"parameter_enable" : 0,
					"patching_rect" : [ 160.5, 902.0, 99.0, 22.0 ],
					"presentation" : 1,
					"presentation_rect" : [ 204.0, 163.0, 445.0, 22.0 ],
					"size" : 1.0,
					"style" : "default"
				}

			}
, 			{
				"box" : 				{
					"id" : "obj-34",
					"maxclass" : "comment",
					"numinlets" : 1,
					"numoutlets" : 0,
					"patching_rect" : [ 323.5, 944.0, 52.0, 20.0 ],
					"presentation" : 1,
					"presentation_rect" : [ 706.0, 187.0, 22.5, 20.0 ],
					"style" : "",
					"text" : "k"
				}

			}
, 			{
				"box" : 				{
					"id" : "obj-30",
					"maxclass" : "comment",
					"numinlets" : 1,
					"numoutlets" : 0,
					"patching_rect" : [ 212.5, 944.0, 47.0, 20.0 ],
					"presentation" : 1,
					"presentation_rect" : [ 706.0, 163.0, 22.5, 20.0 ],
					"style" : "",
					"text" : "f"
				}

			}
, 			{
				"box" : 				{
					"id" : "obj-25",
					"maxclass" : "comment",
					"numinlets" : 1,
					"numoutlets" : 0,
					"patching_rect" : [ 608.5, 944.0, 83.0, 20.0 ],
					"presentation" : 1,
					"presentation_rect" : [ 706.0, 140.0, 27.0, 20.0 ],
					"style" : "",
					"text" : "db"
				}

			}
, 			{
				"box" : 				{
					"id" : "obj-14",
					"maxclass" : "comment",
					"numinlets" : 1,
					"numoutlets" : 0,
					"patching_rect" : [ 465.0, 944.0, 80.5, 20.0 ],
					"presentation" : 1,
					"presentation_rect" : [ 706.0, 116.0, 27.0, 20.0 ],
					"style" : "",
					"text" : "da"
				}

			}
, 			{
				"box" : 				{
					"id" : "obj-7",
					"maxclass" : "comment",
					"numinlets" : 1,
					"numoutlets" : 0,
					"patching_rect" : [ 114.0, 856.0, 52.0, 20.0 ],
					"presentation" : 1,
					"presentation_rect" : [ 706.0, 211.0, 27.0, 20.0 ],
					"style" : "",
					"text" : "dt"
				}

			}
, 			{
				"box" : 				{
					"id" : "obj-71",
					"maxclass" : "newobj",
					"numinlets" : 1,
					"numoutlets" : 4,
					"outlettype" : [ "", "", "", "" ],
					"patching_rect" : [ 36.5, 1258.0, 58.0, 22.0 ],
					"restore" : 					{
						"da" : [ 1.065252 ],
						"db" : [ 0.959183 ],
						"dt" : [ 21.609196 ],
						"f" : [ 0.006084 ],
						"k" : [ 0.007226 ]
					}
,
					"style" : "",
					"text" : "autopattr",
					"varname" : "u774010613"
				}

			}
, 			{
				"box" : 				{
					"id" : "obj-69",
					"maxclass" : "newobj",
					"numinlets" : 1,
					"numoutlets" : 1,
					"outlettype" : [ "" ],
					"patching_rect" : [ 274.5, 980.0, 101.0, 22.0 ],
					"style" : "",
					"text" : "prepend param k"
				}

			}
, 			{
				"box" : 				{
					"id" : "obj-68",
					"maxclass" : "newobj",
					"numinlets" : 1,
					"numoutlets" : 1,
					"outlettype" : [ "" ],
					"patching_rect" : [ 160.5, 980.0, 99.0, 22.0 ],
					"style" : "",
					"text" : "prepend param f"
				}

			}
, 			{
				"box" : 				{
					"id" : "obj-65",
					"maxclass" : "newobj",
					"numinlets" : 1,
					"numoutlets" : 1,
					"outlettype" : [ "" ],
					"patching_rect" : [ 39.5, 987.0, 105.0, 22.0 ],
					"style" : "",
					"text" : "prepend param dt"
				}

			}
, 			{
				"box" : 				{
					"format" : 6,
					"id" : "obj-35",
					"maxclass" : "flonum",
					"maximum" : 1.0,
					"minimum" : 0.0,
					"numdecimalplaces" : 6,
					"numinlets" : 1,
					"numoutlets" : 2,
					"outlettype" : [ "", "bang" ],
					"parameter_enable" : 0,
					"patching_rect" : [ 274.5, 944.0, 50.0, 22.0 ],
					"presentation" : 1,
					"presentation_rect" : [ 651.0, 187.0, 53.0, 22.0 ],
					"style" : "",
					"varname" : "k"
				}

			}
, 			{
				"box" : 				{
					"format" : 6,
					"id" : "obj-33",
					"maxclass" : "flonum",
					"maximum" : 1.0,
					"minimum" : 0.0,
					"numdecimalplaces" : 6,
					"numinlets" : 1,
					"numoutlets" : 2,
					"outlettype" : [ "", "bang" ],
					"parameter_enable" : 0,
					"patching_rect" : [ 160.5, 944.0, 50.0, 22.0 ],
					"presentation" : 1,
					"presentation_rect" : [ 651.0, 163.0, 53.0, 22.0 ],
					"style" : "",
					"varname" : "f"
				}

			}
, 			{
				"box" : 				{
					"format" : 6,
					"id" : "obj-31",
					"maxclass" : "flonum",
					"maximum" : 2.0,
					"minimum" : -2.0,
					"numdecimalplaces" : 3,
					"numinlets" : 1,
					"numoutlets" : 2,
					"outlettype" : [ "", "bang" ],
					"parameter_enable" : 0,
					"patching_rect" : [ 556.5, 944.0, 50.0, 22.0 ],
					"presentation" : 1,
					"presentation_rect" : [ 651.0, 139.0, 53.0, 22.0 ],
					"style" : "",
					"varname" : "db"
				}

			}
, 			{
				"box" : 				{
					"format" : 6,
					"id" : "obj-29",
					"maxclass" : "flonum",
					"maximum" : 2.0,
					"minimum" : -2.0,
					"numdecimalplaces" : 3,
					"numinlets" : 1,
					"numoutlets" : 2,
					"outlettype" : [ "", "bang" ],
					"parameter_enable" : 0,
					"patching_rect" : [ 410.5, 944.0, 50.0, 22.0 ],
					"presentation" : 1,
					"presentation_rect" : [ 651.0, 115.0, 53.0, 22.0 ],
					"style" : "",
					"varname" : "da"
				}

			}
, 			{
				"box" : 				{
					"format" : 6,
					"id" : "obj-22",
					"maxclass" : "flonum",
					"maximum" : 1000.0,
					"minimum" : 0.0,
					"numdecimalplaces" : 3,
					"numinlets" : 1,
					"numoutlets" : 2,
					"outlettype" : [ "", "bang" ],
					"parameter_enable" : 0,
					"patching_rect" : [ 94.5, 893.0, 50.0, 22.0 ],
					"presentation" : 1,
					"presentation_rect" : [ 651.0, 211.0, 53.0, 22.0 ],
					"style" : "",
					"varname" : "dt"
				}

			}
, 			{
				"box" : 				{
					"id" : "obj-73",
					"maxclass" : "message",
					"numinlets" : 2,
					"numoutlets" : 1,
					"outlettype" : [ "" ],
					"patching_rect" : [ 89.5, 1151.0, 91.0, 22.0 ],
					"style" : "",
					"text" : "storagewindow"
				}

			}
, 			{
				"box" : 				{
					"id" : "obj-26",
					"maxclass" : "message",
					"numinlets" : 2,
					"numoutlets" : 1,
					"outlettype" : [ "" ],
					"patching_rect" : [ 36.5, 1151.0, 36.0, 22.0 ],
					"presentation" : 1,
					"presentation_rect" : [ 150.0, 213.0, 36.0, 22.0 ],
					"style" : "",
					"text" : "write"
				}

			}
, 			{
				"box" : 				{
					"autorestore" : "reaction-diffusion.json",
					"id" : "obj-24",
					"maxclass" : "newobj",
					"numinlets" : 1,
					"numoutlets" : 1,
					"outlettype" : [ "" ],
					"patching_rect" : [ 36.5, 1182.0, 209.0, 22.0 ],
					"saved_object_attributes" : 					{
						"client_rect" : [ 854, 172, 1208, 300 ],
						"parameter_enable" : 0,
						"storage_rect" : [ 583, 69, 1034, 197 ]
					}
,
					"style" : "",
					"text" : "pattrstorage rdparams @savemode 0",
					"varname" : "rdparams"
				}

			}
, 			{
				"box" : 				{
					"id" : "obj-23",
					"maxclass" : "preset",
					"numinlets" : 1,
					"numoutlets" : 4,
					"outlettype" : [ "preset", "int", "preset", "int" ],
					"patching_rect" : [ 36.5, 1215.0, 209.0, 32.0 ],
					"pattrstorage" : "rdparams",
					"presentation" : 1,
					"presentation_rect" : [ 108.0, 115.0, 78.0, 91.0 ],
					"style" : "",
					"varname" : "preset"
				}

			}
, 			{
				"box" : 				{
					"id" : "obj-63",
					"maxclass" : "newobj",
					"numinlets" : 0,
					"numoutlets" : 1,
					"outlettype" : [ "" ],
					"patching_rect" : [ 278.0, 181.0, 49.0, 22.0 ],
					"style" : "",
					"text" : "r metro"
				}

			}
, 			{
				"box" : 				{
					"angle" : 270.0,
					"border" : 1,
					"bordercolor" : [ 0.65098, 0.666667, 0.662745, 1.0 ],
					"grad1" : [ 0.862745, 0.870588, 0.878431, 1.0 ],
					"grad2" : [ 0.862745, 0.870588, 0.878431, 1.0 ],
					"id" : "obj-51",
					"maxclass" : "panel",
					"mode" : 1,
					"numinlets" : 1,
					"numoutlets" : 0,
					"patching_rect" : [ 716.0, 799.5, 183.0, 233.0 ],
					"proportion" : 0.39,
					"style" : ""
				}

			}
, 			{
				"box" : 				{
					"angle" : 270.0,
					"border" : 1,
					"bordercolor" : [ 0.65098, 0.666667, 0.662745, 1.0 ],
					"grad1" : [ 0.862745, 0.870588, 0.878431, 1.0 ],
					"grad2" : [ 0.862745, 0.870588, 0.878431, 1.0 ],
					"id" : "obj-93",
					"maxclass" : "panel",
					"mode" : 1,
					"numinlets" : 1,
					"numoutlets" : 0,
					"patching_rect" : [ 25.0, 1107.5, 234.5, 183.0 ],
					"proportion" : 0.39,
					"style" : ""
				}

			}
, 			{
				"box" : 				{
					"angle" : 270.0,
					"border" : 1,
					"bordercolor" : [ 0.65098, 0.666667, 0.662745, 1.0 ],
					"grad1" : [ 0.862745, 0.870588, 0.878431, 1.0 ],
					"grad2" : [ 0.862745, 0.870588, 0.878431, 1.0 ],
					"id" : "obj-94",
					"maxclass" : "panel",
					"mode" : 1,
					"numinlets" : 1,
					"numoutlets" : 0,
					"patching_rect" : [ 25.0, 799.5, 680.0, 293.0 ],
					"proportion" : 0.39,
					"style" : ""
				}

			}
, 			{
				"box" : 				{
					"angle" : 270.0,
					"border" : 1,
					"bordercolor" : [ 0.65098, 0.666667, 0.662745, 1.0 ],
					"grad1" : [ 0.862745, 0.870588, 0.878431, 1.0 ],
					"grad2" : [ 0.862745, 0.870588, 0.878431, 1.0 ],
					"id" : "obj-95",
					"maxclass" : "panel",
					"mode" : 1,
					"numinlets" : 1,
					"numoutlets" : 0,
					"patching_rect" : [ 264.5, 1107.5, 311.0, 153.0 ],
					"proportion" : 0.39,
					"style" : ""
				}

			}
, 			{
				"box" : 				{
					"angle" : 270.0,
					"border" : 1,
					"bordercolor" : [ 0.65098, 0.666667, 0.662745, 1.0 ],
					"grad1" : [ 1.0, 1.0, 1.0, 1.0 ],
					"grad2" : [ 1.0, 1.0, 1.0, 1.0 ],
					"id" : "obj-105",
					"maxclass" : "panel",
					"mode" : 1,
					"numinlets" : 1,
					"numoutlets" : 0,
					"patching_rect" : [ 25.0, 1308.0, 883.0, 4.0 ],
					"presentation" : 1,
					"presentation_rect" : [ 16.5, 110.0, 78.5, 130.0 ],
					"proportion" : 0.39,
					"style" : ""
				}

			}
, 			{
				"box" : 				{
					"angle" : 270.0,
					"border" : 1,
					"bordercolor" : [ 0.65098, 0.666667, 0.662745, 1.0 ],
					"grad1" : [ 1.0, 1.0, 1.0, 1.0 ],
					"grad2" : [ 1.0, 1.0, 1.0, 1.0 ],
					"id" : "obj-106",
					"maxclass" : "panel",
					"mode" : 1,
					"numinlets" : 1,
					"numoutlets" : 0,
					"patching_rect" : [ 25.0, 783.5, 883.0, 4.0 ],
					"presentation" : 1,
					"presentation_rect" : [ 197.0, 110.0, 540.5, 130.0 ],
					"proportion" : 0.39,
					"style" : ""
				}

			}
, 			{
				"box" : 				{
					"angle" : 270.0,
					"border" : 1,
					"bordercolor" : [ 0.65098, 0.666667, 0.662745, 1.0 ],
					"grad1" : [ 1.0, 1.0, 1.0, 1.0 ],
					"grad2" : [ 1.0, 1.0, 1.0, 1.0 ],
					"id" : "obj-107",
					"maxclass" : "panel",
					"mode" : 1,
					"numinlets" : 1,
					"numoutlets" : 0,
					"patching_rect" : [ 25.0, 1429.0, 883.0, 4.0 ],
					"presentation" : 1,
					"presentation_rect" : [ 102.25, 110.0, 89.25, 130.0 ],
					"proportion" : 0.39,
					"style" : ""
				}

			}
, 			{
				"box" : 				{
					"angle" : 270.0,
					"border" : 1,
					"bordercolor" : [ 0.0, 0.0, 0.0, 1.0 ],
					"grad1" : [ 0.65098, 0.666667, 0.662745, 0.0 ],
					"grad2" : [ 0.65098, 0.666667, 0.662745, 0.0 ],
					"id" : "obj-115",
					"maxclass" : "panel",
					"mode" : 1,
					"numinlets" : 1,
					"numoutlets" : 0,
					"patching_rect" : [ 25.0, 1326.0, 883.0, 69.0 ],
					"presentation" : 1,
					"presentation_rect" : [ 9.0, 4.5, 738.5, 244.0 ],
					"proportion" : 0.39,
					"style" : ""
				}

			}
, 			{
				"box" : 				{
					"angle" : 270.0,
					"border" : 1,
					"bordercolor" : [ 0.65098, 0.666667, 0.662745, 1.0 ],
					"grad1" : [ 1.0, 1.0, 1.0, 1.0 ],
					"grad2" : [ 1.0, 1.0, 1.0, 1.0 ],
					"id" : "obj-12",
					"maxclass" : "panel",
					"mode" : 1,
					"numinlets" : 1,
					"numoutlets" : 0,
					"patching_rect" : [ 25.0, 1409.0, 883.0, 4.0 ],
					"presentation" : 1,
					"presentation_rect" : [ 659.25, 61.0, 79.75, 47.0 ],
					"proportion" : 0.39,
					"style" : ""
				}

			}
 ],
		"lines" : [ 			{
				"patchline" : 				{
					"destination" : [ "obj-11", 0 ],
					"disabled" : 0,
					"hidden" : 0,
					"source" : [ "obj-1", 0 ]
				}

			}
, 			{
				"patchline" : 				{
					"destination" : [ "obj-100", 0 ],
					"disabled" : 0,
					"hidden" : 0,
					"source" : [ "obj-10", 1 ]
				}

			}
, 			{
				"patchline" : 				{
					"destination" : [ "obj-37", 0 ],
					"disabled" : 0,
					"hidden" : 0,
					"source" : [ "obj-102", 0 ]
				}

			}
, 			{
				"patchline" : 				{
					"destination" : [ "obj-22", 0 ],
					"disabled" : 0,
					"hidden" : 0,
					"source" : [ "obj-103", 0 ]
				}

			}
, 			{
				"patchline" : 				{
					"destination" : [ "obj-75", 0 ],
					"disabled" : 0,
					"hidden" : 0,
					"source" : [ "obj-104", 0 ]
				}

			}
, 			{
				"patchline" : 				{
					"destination" : [ "obj-1", 1 ],
					"disabled" : 0,
					"hidden" : 0,
					"source" : [ "obj-109", 0 ]
				}

			}
, 			{
				"patchline" : 				{
					"destination" : [ "obj-24", 0 ],
					"disabled" : 0,
					"hidden" : 0,
					"source" : [ "obj-116", 0 ]
				}

			}
, 			{
				"patchline" : 				{
					"destination" : [ "obj-124", 0 ],
					"disabled" : 0,
					"hidden" : 0,
					"source" : [ "obj-122", 0 ]
				}

			}
, 			{
				"patchline" : 				{
					"destination" : [ "obj-122", 1 ],
					"disabled" : 0,
					"hidden" : 0,
					"source" : [ "obj-123", 0 ]
				}

			}
, 			{
				"patchline" : 				{
					"destination" : [ "obj-122", 0 ],
					"disabled" : 0,
					"hidden" : 0,
					"source" : [ "obj-123", 0 ]
				}

			}
, 			{
				"patchline" : 				{
					"destination" : [ "obj-125", 0 ],
					"disabled" : 0,
					"hidden" : 0,
					"source" : [ "obj-124", 0 ]
				}

			}
, 			{
				"patchline" : 				{
					"destination" : [ "obj-65", 0 ],
					"disabled" : 0,
					"hidden" : 0,
					"source" : [ "obj-125", 0 ]
				}

			}
, 			{
				"patchline" : 				{
					"destination" : [ "obj-91", 0 ],
					"disabled" : 0,
					"hidden" : 0,
					"source" : [ "obj-13", 0 ]
				}

			}
, 			{
				"patchline" : 				{
					"destination" : [ "obj-96", 0 ],
					"disabled" : 0,
					"hidden" : 0,
					"source" : [ "obj-134", 0 ]
				}

			}
, 			{
				"patchline" : 				{
					"destination" : [ "obj-29", 0 ],
					"disabled" : 0,
					"hidden" : 0,
					"source" : [ "obj-155", 0 ]
				}

			}
, 			{
				"patchline" : 				{
					"destination" : [ "obj-31", 0 ],
					"disabled" : 0,
					"hidden" : 0,
					"source" : [ "obj-156", 0 ]
				}

			}
, 			{
				"patchline" : 				{
					"destination" : [ "obj-33", 0 ],
					"disabled" : 0,
					"hidden" : 0,
					"source" : [ "obj-18", 0 ]
				}

			}
, 			{
				"patchline" : 				{
					"destination" : [ "obj-91", 0 ],
					"disabled" : 0,
					"hidden" : 0,
					"source" : [ "obj-2", 0 ]
				}

			}
, 			{
				"patchline" : 				{
					"destination" : [ "obj-35", 0 ],
					"disabled" : 0,
					"hidden" : 0,
					"source" : [ "obj-20", 0 ]
				}

			}
, 			{
				"patchline" : 				{
					"destination" : [ "obj-125", 1 ],
					"disabled" : 0,
					"hidden" : 0,
					"source" : [ "obj-22", 0 ]
				}

			}
, 			{
				"patchline" : 				{
					"destination" : [ "obj-24", 0 ],
					"disabled" : 0,
					"hidden" : 0,
					"source" : [ "obj-26", 0 ]
				}

			}
, 			{
				"patchline" : 				{
					"destination" : [ "obj-2", 0 ],
					"disabled" : 0,
					"hidden" : 0,
					"source" : [ "obj-29", 0 ]
				}

			}
, 			{
				"patchline" : 				{
					"destination" : [ "obj-43", 2 ],
					"disabled" : 0,
					"hidden" : 0,
					"source" : [ "obj-29", 0 ]
				}

			}
, 			{
				"patchline" : 				{
					"destination" : [ "obj-104", 1 ],
					"disabled" : 0,
					"hidden" : 0,
					"source" : [ "obj-3", 0 ]
				}

			}
, 			{
				"patchline" : 				{
					"destination" : [ "obj-13", 0 ],
					"disabled" : 0,
					"hidden" : 0,
					"source" : [ "obj-31", 0 ]
				}

			}
, 			{
				"patchline" : 				{
					"destination" : [ "obj-43", 3 ],
					"disabled" : 0,
					"hidden" : 0,
					"source" : [ "obj-31", 0 ]
				}

			}
, 			{
				"patchline" : 				{
					"destination" : [ "obj-68", 0 ],
					"disabled" : 0,
					"hidden" : 0,
					"source" : [ "obj-33", 0 ]
				}

			}
, 			{
				"patchline" : 				{
					"destination" : [ "obj-69", 0 ],
					"disabled" : 0,
					"hidden" : 0,
					"source" : [ "obj-35", 0 ]
				}

			}
, 			{
				"patchline" : 				{
					"destination" : [ "obj-40", 0 ],
					"disabled" : 0,
					"hidden" : 0,
					"source" : [ "obj-36", 0 ]
				}

			}
, 			{
				"patchline" : 				{
					"destination" : [ "obj-78", 0 ],
					"disabled" : 0,
					"hidden" : 0,
					"source" : [ "obj-37", 1 ]
				}

			}
, 			{
				"patchline" : 				{
					"destination" : [ "obj-104", 0 ],
					"disabled" : 0,
					"hidden" : 0,
					"source" : [ "obj-4", 0 ]
				}

			}
, 			{
				"patchline" : 				{
					"destination" : [ "obj-109", 0 ],
					"disabled" : 0,
					"hidden" : 0,
					"source" : [ "obj-40", 0 ]
				}

			}
, 			{
				"patchline" : 				{
					"destination" : [ "obj-37", 0 ],
					"disabled" : 0,
					"hidden" : 0,
					"source" : [ "obj-42", 0 ]
				}

			}
, 			{
				"patchline" : 				{
					"destination" : [ "obj-91", 0 ],
					"disabled" : 0,
					"hidden" : 0,
					"source" : [ "obj-43", 0 ]
				}

			}
, 			{
				"patchline" : 				{
					"destination" : [ "obj-62", 0 ],
					"disabled" : 0,
					"hidden" : 0,
					"source" : [ "obj-44", 0 ]
				}

			}
, 			{
				"patchline" : 				{
					"destination" : [ "obj-75", 0 ],
					"disabled" : 0,
					"hidden" : 0,
					"source" : [ "obj-45", 0 ]
				}

			}
, 			{
				"patchline" : 				{
					"destination" : [ "obj-3", 0 ],
					"disabled" : 0,
					"hidden" : 0,
					"source" : [ "obj-47", 0 ]
				}

			}
, 			{
				"patchline" : 				{
					"destination" : [ "obj-4", 0 ],
					"disabled" : 0,
					"hidden" : 0,
					"source" : [ "obj-47", 0 ]
				}

			}
, 			{
				"patchline" : 				{
					"destination" : [ "obj-24", 0 ],
					"disabled" : 0,
					"hidden" : 0,
					"source" : [ "obj-5", 0 ]
				}

			}
, 			{
				"patchline" : 				{
					"destination" : [ "obj-47", 1 ],
					"disabled" : 0,
					"hidden" : 0,
					"source" : [ "obj-50", 0 ]
				}

			}
, 			{
				"patchline" : 				{
					"destination" : [ "obj-45", 2 ],
					"disabled" : 0,
					"hidden" : 0,
					"source" : [ "obj-52", 0 ]
				}

			}
, 			{
				"patchline" : 				{
					"destination" : [ "obj-45", 3 ],
					"disabled" : 0,
					"hidden" : 0,
					"source" : [ "obj-54", 0 ]
				}

			}
, 			{
				"patchline" : 				{
					"destination" : [ "obj-45", 4 ],
					"disabled" : 0,
					"hidden" : 0,
					"source" : [ "obj-56", 0 ]
				}

			}
, 			{
				"patchline" : 				{
					"destination" : [ "obj-45", 0 ],
					"disabled" : 0,
					"hidden" : 0,
					"source" : [ "obj-62", 0 ]
				}

			}
, 			{
				"patchline" : 				{
					"destination" : [ "obj-52", 0 ],
					"disabled" : 0,
					"hidden" : 0,
					"source" : [ "obj-62", 0 ]
				}

			}
, 			{
				"patchline" : 				{
					"destination" : [ "obj-54", 0 ],
					"disabled" : 0,
					"hidden" : 0,
					"source" : [ "obj-62", 0 ]
				}

			}
, 			{
				"patchline" : 				{
					"destination" : [ "obj-56", 0 ],
					"disabled" : 0,
					"hidden" : 0,
					"source" : [ "obj-62", 0 ]
				}

			}
, 			{
				"patchline" : 				{
					"destination" : [ "obj-44", 1 ],
					"disabled" : 0,
					"hidden" : 0,
					"source" : [ "obj-63", 0 ]
				}

			}
, 			{
				"patchline" : 				{
					"destination" : [ "obj-47", 0 ],
					"disabled" : 0,
					"hidden" : 0,
					"source" : [ "obj-63", 0 ]
				}

			}
, 			{
				"patchline" : 				{
					"destination" : [ "obj-10", 0 ],
					"disabled" : 0,
					"hidden" : 0,
					"source" : [ "obj-64", 0 ]
				}

			}
, 			{
				"patchline" : 				{
					"destination" : [ "obj-88", 0 ],
					"disabled" : 0,
					"hidden" : 0,
					"source" : [ "obj-65", 0 ]
				}

			}
, 			{
				"patchline" : 				{
					"destination" : [ "obj-91", 0 ],
					"disabled" : 0,
					"hidden" : 0,
					"source" : [ "obj-65", 0 ]
				}

			}
, 			{
				"patchline" : 				{
					"destination" : [ "obj-3", 0 ],
					"disabled" : 0,
					"hidden" : 0,
					"source" : [ "obj-66", 0 ]
				}

			}
, 			{
				"patchline" : 				{
					"destination" : [ "obj-4", 0 ],
					"disabled" : 0,
					"hidden" : 0,
					"source" : [ "obj-67", 0 ]
				}

			}
, 			{
				"patchline" : 				{
					"destination" : [ "obj-88", 0 ],
					"disabled" : 0,
					"hidden" : 0,
					"source" : [ "obj-68", 0 ]
				}

			}
, 			{
				"patchline" : 				{
					"destination" : [ "obj-88", 0 ],
					"disabled" : 0,
					"hidden" : 0,
					"source" : [ "obj-69", 0 ]
				}

			}
, 			{
				"patchline" : 				{
					"destination" : [ "obj-24", 0 ],
					"disabled" : 0,
					"hidden" : 0,
					"source" : [ "obj-73", 0 ]
				}

			}
, 			{
				"patchline" : 				{
					"destination" : [ "obj-50", 0 ],
					"disabled" : 0,
					"hidden" : 0,
					"midpoints" : [ 287.5, 453.0, 264.0, 453.0, 264.0, 261.0, 308.5, 261.0 ],
					"source" : [ "obj-75", 0 ]
				}

			}
, 			{
				"patchline" : 				{
					"destination" : [ "obj-81", 0 ],
					"disabled" : 0,
					"hidden" : 0,
					"source" : [ "obj-75", 0 ]
				}

			}
, 			{
				"patchline" : 				{
					"destination" : [ "obj-82", 0 ],
					"disabled" : 0,
					"hidden" : 0,
					"source" : [ "obj-81", 0 ]
				}

			}
, 			{
				"patchline" : 				{
					"destination" : [ "obj-1", 0 ],
					"disabled" : 0,
					"hidden" : 0,
					"source" : [ "obj-85", 0 ]
				}

			}
, 			{
				"patchline" : 				{
					"destination" : [ "obj-47", 0 ],
					"disabled" : 0,
					"hidden" : 0,
					"source" : [ "obj-87", 0 ]
				}

			}
, 			{
				"patchline" : 				{
					"destination" : [ "obj-44", 0 ],
					"disabled" : 0,
					"hidden" : 0,
					"source" : [ "obj-9", 0 ]
				}

			}
, 			{
				"patchline" : 				{
					"destination" : [ "obj-50", 0 ],
					"disabled" : 0,
					"hidden" : 0,
					"source" : [ "obj-96", 0 ]
				}

			}
, 			{
				"patchline" : 				{
					"destination" : [ "obj-102", 0 ],
					"disabled" : 0,
					"hidden" : 0,
					"source" : [ "obj-97", 0 ]
				}

			}
 ],
		"dependency_cache" : [ 			{
				"name" : "reaction-diffusion.json",
				"bootpath" : "~/synthesis-git/ECM/scratch",
				"type" : "JSON",
				"implicit" : 1
			}
 ],
		"autosave" : 0,
		"styles" : [ 			{
				"name" : "Jamoma_highlighted_orange",
				"default" : 				{
					"accentcolor" : [ 1.0, 0.5, 0.0, 1.0 ]
				}
,
				"parentstyle" : "",
				"multi" : 0
			}
 ]
	}

}
