{
	"patcher" : 	{
		"fileversion" : 1,
		"appversion" : 		{
			"major" : 7,
			"minor" : 2,
			"revision" : 4,
			"architecture" : "x64",
			"modernui" : 1
		}
,
		"rect" : [ 113.0, 154.0, 600.0, 450.0 ],
		"editing_bgcolor" : [ 0.9, 0.9, 0.9, 1.0 ],
		"bglocked" : 0,
		"openinpresentation" : 0,
		"default_fontsize" : 12.0,
		"default_fontface" : 0,
		"default_fontname" : "Arial",
		"gridonopen" : 1,
		"gridsize" : [ 15.0, 15.0 ],
		"gridsnaponopen" : 1,
		"objectsnaponopen" : 1,
		"statusbarvisible" : 2,
		"toolbarvisible" : 1,
		"lefttoolbarpinned" : 0,
		"toptoolbarpinned" : 0,
		"righttoolbarpinned" : 0,
		"bottomtoolbarpinned" : 0,
		"toolbars_unpinned_last_save" : 0,
		"tallnewobj" : 0,
		"boxanimatetime" : 200,
		"enablehscroll" : 1,
		"enablevscroll" : 1,
		"devicewidth" : 0.0,
		"description" : "",
		"digest" : "",
		"tags" : "",
		"style" : "",
		"subpatcher_template" : "",
		"boxes" : [ 			{
				"box" : 				{
					"code" : "Param cell_size(1.25);\r\nParam on(1);\r\n\r\nvelocity = in1;\r\nobstacles = in2;\r\n\r\nif (on) {\r\n\thalf_inverse_cell_size = .5 / cell_size;\r\n\t\r\n\t// Find neighboring velocities.\r\n\tvN = nearest(velocity, (cell + vec(0, 1)) / dim).xy;\r\n\tvS = nearest(velocity, (cell + vec(0, -1)) / dim).xy;\r\n\tvE = nearest(velocity, (cell + vec(1, 0)) / dim).xy;\r\n\tvW = nearest(velocity, (cell + vec(-1, 0)) / dim).xy;\r\n\t\r\n\t// Find neighboring obstacles.\r\n\toN = nearest(obstacles, (cell + vec(0, 1)) / dim).xyz;\r\n\toS = nearest(obstacles, (cell + vec(0, -1)) / dim).xyz;\r\n\toE = nearest(obstacles, (cell + vec(1, 0)) / dim).xyz;\r\n\toW = nearest(obstacles, (cell + vec(-1, 0)) / dim).xyz;\r\n\t\r\n\t // Use obstacle velocities for solid cells.\r\n\tif(oN.x > 0) vN = oN.yz;\r\n\tif(oS.x > 0) vS = oS.yz;\r\n\tif(oE.x > 0) vE = oE.yz;\r\n\tif(oW.x > 0) vW = oW.yz;\r\n\t\r\n\tfc =-1 * half_inverse_cell_size * (vE.x - vW.x + vN.y - vS.y);\r\n\tout1 = vec(in1.r, fc, in1.b, in.a);\r\n} else {\r\n\tout1 = vec(0, 0, 0, 0);\r\n}",
					"fontface" : 0,
					"fontname" : "Arial",
					"fontsize" : 12.0,
					"id" : "obj-5",
					"maxclass" : "codebox",
					"numinlets" : 2,
					"numoutlets" : 1,
					"outlettype" : [ "" ],
					"patching_rect" : [ 50.0, 43.0, 520.0, 400.0 ],
					"style" : ""
				}

			}
, 			{
				"box" : 				{
					"id" : "obj-1",
					"maxclass" : "newobj",
					"numinlets" : 0,
					"numoutlets" : 1,
					"outlettype" : [ "" ],
					"patching_rect" : [ 50.0, 14.0, 73.0, 22.0 ],
					"style" : "",
					"text" : "in 1 velocity"
				}

			}
, 			{
				"box" : 				{
					"id" : "obj-2",
					"maxclass" : "newobj",
					"numinlets" : 0,
					"numoutlets" : 1,
					"outlettype" : [ "" ],
					"patching_rect" : [ 551.0, 14.0, 84.0, 22.0 ],
					"style" : "",
					"text" : "in 2 obstacles"
				}

			}
, 			{
				"box" : 				{
					"id" : "obj-4",
					"maxclass" : "newobj",
					"numinlets" : 1,
					"numoutlets" : 0,
					"patching_rect" : [ 50.0, 463.0, 37.0, 22.0 ],
					"style" : "",
					"text" : "out 1"
				}

			}
 ],
		"lines" : [ 			{
				"patchline" : 				{
					"destination" : [ "obj-5", 0 ],
					"disabled" : 0,
					"hidden" : 0,
					"source" : [ "obj-1", 0 ]
				}

			}
, 			{
				"patchline" : 				{
					"destination" : [ "obj-5", 1 ],
					"disabled" : 0,
					"hidden" : 0,
					"source" : [ "obj-2", 0 ]
				}

			}
, 			{
				"patchline" : 				{
					"destination" : [ "obj-4", 0 ],
					"disabled" : 0,
					"hidden" : 0,
					"source" : [ "obj-5", 0 ]
				}

			}
 ]
	}

}
