{
	"patcher" : 	{
		"fileversion" : 1,
		"appversion" : 		{
			"major" : 7,
			"minor" : 1,
			"revision" : 0,
			"architecture" : "x64",
			"modernui" : 1
		}
,
		"rect" : [ 152.0, 259.0, 600.0, 450.0 ],
		"editing_bgcolor" : [ 0.9, 0.9, 0.9, 1.0 ],
		"bglocked" : 0,
		"openinpresentation" : 0,
		"default_fontsize" : 12.0,
		"default_fontface" : 0,
		"default_fontname" : "Arial",
		"gridonopen" : 1,
		"gridsize" : [ 15.0, 15.0 ],
		"gridsnaponopen" : 1,
		"objectsnaponopen" : 1,
		"statusbarvisible" : 2,
		"toolbarvisible" : 1,
		"lefttoolbarpinned" : 0,
		"toptoolbarpinned" : 0,
		"righttoolbarpinned" : 0,
		"bottomtoolbarpinned" : 0,
		"toolbars_unpinned_last_save" : 0,
		"tallnewobj" : 0,
		"boxanimatetime" : 200,
		"enablehscroll" : 1,
		"enablevscroll" : 1,
		"devicewidth" : 0.0,
		"description" : "",
		"digest" : "",
		"tags" : "",
		"style" : "",
		"subpatcher_template" : "",
		"boxes" : [ 			{
				"box" : 				{
					"id" : "obj-6",
					"maxclass" : "newobj",
					"numinlets" : 0,
					"numoutlets" : 1,
					"outlettype" : [ "" ],
					"patching_rect" : [ 435.0, 14.0, 84.0, 22.0 ],
					"style" : "",
					"text" : "in 3 obstacles"
				}

			}
, 			{
				"box" : 				{
					"code" : "Param cell_size(1.25);\r\nParam inverse_beta(.25);\r\n\r\nalpha = -cell_size * cell_size;\r\npressure = in1;\r\ndivergence = in2;\r\nobstacles = in3;\r\n\r\npN = nearest(pressure, (cell + vec(0, 1)) / dim);\r\npS = nearest(pressure, (cell + vec(0, -1)) / dim);\r\npE = nearest(pressure, (cell + vec(1, 0)) / dim);\r\npW = nearest(pressure, (cell + vec(-1, 0)) / dim);\r\npC = pressure;\r\n\r\noN = nearest(obstacles, (cell + vec(0, 1)) / dim);\r\noS = nearest(obstacles, (cell + vec(0, -1)) / dim);\r\noE = nearest(obstacles, (cell + vec(1, 0)) / dim);\r\noW = nearest(obstacles, (cell + vec(-1, 0)) / dim);\r\n\r\nif(oN.x > 0) pN = pC;\r\nif(oS.x > 0) pS = pC;\r\nif(oE.x > 0) pE = pC;\r\nif(oW.x > 0) pW = pC;\r\n\r\nbC = divergence;\r\n\r\nout1 = (pW + pE + pS + pN + alpha * bC) * inverse_beta;",
					"fontface" : 0,
					"fontname" : "Arial",
					"fontsize" : 12.0,
					"id" : "obj-5",
					"maxclass" : "codebox",
					"numinlets" : 3,
					"numoutlets" : 1,
					"outlettype" : [ "" ],
					"patching_rect" : [ 50.0, 56.0, 404.0, 416.0 ],
					"style" : ""
				}

			}
, 			{
				"box" : 				{
					"id" : "obj-1",
					"maxclass" : "newobj",
					"numinlets" : 0,
					"numoutlets" : 1,
					"outlettype" : [ "" ],
					"patching_rect" : [ 50.0, 14.0, 80.0, 22.0 ],
					"style" : "",
					"text" : "in 1 pressure"
				}

			}
, 			{
				"box" : 				{
					"id" : "obj-2",
					"maxclass" : "newobj",
					"numinlets" : 0,
					"numoutlets" : 1,
					"outlettype" : [ "" ],
					"patching_rect" : [ 242.5, 14.0, 92.0, 22.0 ],
					"style" : "",
					"text" : "in 2 divergence"
				}

			}
, 			{
				"box" : 				{
					"id" : "obj-4",
					"maxclass" : "newobj",
					"numinlets" : 1,
					"numoutlets" : 0,
					"patching_rect" : [ 50.0, 492.0, 37.0, 22.0 ],
					"style" : "",
					"text" : "out 1"
				}

			}
 ],
		"lines" : [ 			{
				"patchline" : 				{
					"destination" : [ "obj-5", 0 ],
					"disabled" : 0,
					"hidden" : 0,
					"source" : [ "obj-1", 0 ]
				}

			}
, 			{
				"patchline" : 				{
					"destination" : [ "obj-5", 1 ],
					"disabled" : 0,
					"hidden" : 0,
					"source" : [ "obj-2", 0 ]
				}

			}
, 			{
				"patchline" : 				{
					"destination" : [ "obj-4", 0 ],
					"disabled" : 0,
					"hidden" : 0,
					"source" : [ "obj-5", 0 ]
				}

			}
, 			{
				"patchline" : 				{
					"destination" : [ "obj-5", 2 ],
					"disabled" : 0,
					"hidden" : 0,
					"source" : [ "obj-6", 0 ]
				}

			}
 ]
	}

}
