{
	"patcher" : 	{
		"fileversion" : 1,
		"appversion" : 		{
			"major" : 7,
			"minor" : 2,
			"revision" : 4,
			"architecture" : "x86",
			"modernui" : 1
		}
,
		"rect" : [ 113.0, 154.0, 600.0, 450.0 ],
		"editing_bgcolor" : [ 0.9, 0.9, 0.9, 1.0 ],
		"bglocked" : 0,
		"openinpresentation" : 0,
		"default_fontsize" : 12.0,
		"default_fontface" : 0,
		"default_fontname" : "Arial",
		"gridonopen" : 1,
		"gridsize" : [ 15.0, 15.0 ],
		"gridsnaponopen" : 1,
		"objectsnaponopen" : 1,
		"statusbarvisible" : 2,
		"toolbarvisible" : 1,
		"lefttoolbarpinned" : 0,
		"toptoolbarpinned" : 0,
		"righttoolbarpinned" : 0,
		"bottomtoolbarpinned" : 0,
		"toolbars_unpinned_last_save" : 0,
		"tallnewobj" : 0,
		"boxanimatetime" : 200,
		"enablehscroll" : 1,
		"enablevscroll" : 1,
		"devicewidth" : 0.0,
		"description" : "",
		"digest" : "",
		"tags" : "",
		"style" : "",
		"subpatcher_template" : "",
		"boxes" : [ 			{
				"box" : 				{
					"code" : "Param cell_size(1.25);\r\ngradient_scale = 1.125 / cell_size;\r\n\r\nvelocity = in1;\r\npressure = in2;\r\nobstacles = in3;\r\n\r\noC = obstacles;\r\n\r\nif(oC.x > 0) {\r\n\tout1 = vec(0,0,0,0);//concat(oC.yz, vec(0,0));\r\n} else {\r\n\t// Find neighboring pressure:\r\n\tpN = nearest(pressure, (cell + vec(0, 1)) / dim).r;\r\n\tpS = nearest(pressure, (cell + vec(0, -1)) / dim).r;\r\n\tpE = nearest(pressure, (cell + vec(1, 0)) / dim).r;\r\n\tpW = nearest(pressure, (cell + vec(-1, 0)) / dim).r;\r\n\tpC = pressure;\r\n\t\r\n\t// Find neighboring obstacles:\r\n\toN = nearest(obstacles, (cell + vec(0, 1)) / dim).xyz;\r\n\toS = nearest(obstacles, (cell + vec(0, -1)) / dim).xyz;\r\n\toE = nearest(obstacles, (cell + vec(1, 0)) / dim).xyz;\r\n\toW = nearest(obstacles, (cell + vec(-1, 0)) / dim).xyz;\r\n\t\r\n\t// Use center pressure for solid cells:\r\n\tobstV = vec(0, 0);\r\n\tvMask = vec(1, 1);\r\n\t\r\n\tif(oN.x > 0) { \r\n\t\tpN = pC; \r\n\t\tobstV = vec(obstV.x, oN.z); \r\n\t\tvMask = vec(vMask.x, 0);\r\n\t}\r\n\t\r\n\tif(oS.x > 0) { \r\n\t\tpS = pC; \r\n\t\tobstV = vec(obstV.x, oS.z); \r\n\t\tvMask = vec(vMask.x, 0);\r\n\t}\r\n\t\r\n\tif(oE.x > 0) { \r\n\t\tpE = pC; \r\n\t\tobstV = vec(oE.y, obstV.y); \r\n\t\tvMask = vec(0, vMask.y);\r\n\t}\r\n\t\r\n\tif(oW.x > 0) { \r\n\t\tpW = pC; \r\n\t\tobstV = vec(oW.y, obstV.y); \r\n\t\tvMask = vec(0, vMask.y);\r\n\t}\r\n\t\r\n\toldV = velocity.xy;\r\n\tgrad = vec(pE-pW, pN-pS) * gradient_scale;\r\n\tnewV = oldV - grad;\r\n\t\r\n\tout1 = (vMask*newV) + obstV;\r\n}",
					"fontface" : 0,
					"fontname" : "Arial",
					"fontsize" : 12.0,
					"id" : "obj-6",
					"maxclass" : "codebox",
					"numinlets" : 3,
					"numoutlets" : 1,
					"outlettype" : [ "" ],
					"patching_rect" : [ 50.0, 75.0, 529.0, 333.0 ],
					"style" : ""
				}

			}
, 			{
				"box" : 				{
					"id" : "obj-5",
					"maxclass" : "newobj",
					"numinlets" : 0,
					"numoutlets" : 1,
					"outlettype" : [ "" ],
					"patching_rect" : [ 560.0, 14.0, 84.0, 22.0 ],
					"style" : "",
					"text" : "in 3 obstacles"
				}

			}
, 			{
				"box" : 				{
					"id" : "obj-1",
					"maxclass" : "newobj",
					"numinlets" : 0,
					"numoutlets" : 1,
					"outlettype" : [ "" ],
					"patching_rect" : [ 50.0, 14.0, 73.0, 22.0 ],
					"style" : "",
					"text" : "in 1 velocity"
				}

			}
, 			{
				"box" : 				{
					"id" : "obj-2",
					"maxclass" : "newobj",
					"numinlets" : 0,
					"numoutlets" : 1,
					"outlettype" : [ "" ],
					"patching_rect" : [ 305.0, 14.0, 80.0, 22.0 ],
					"style" : "",
					"text" : "in 2 pressure"
				}

			}
, 			{
				"box" : 				{
					"id" : "obj-4",
					"maxclass" : "newobj",
					"numinlets" : 1,
					"numoutlets" : 0,
					"patching_rect" : [ 50.0, 438.0, 81.0, 22.0 ],
					"style" : "",
					"text" : "out 1 velocity"
				}

			}
 ],
		"lines" : [ 			{
				"patchline" : 				{
					"destination" : [ "obj-6", 0 ],
					"disabled" : 0,
					"hidden" : 0,
					"source" : [ "obj-1", 0 ]
				}

			}
, 			{
				"patchline" : 				{
					"destination" : [ "obj-6", 1 ],
					"disabled" : 0,
					"hidden" : 0,
					"source" : [ "obj-2", 0 ]
				}

			}
, 			{
				"patchline" : 				{
					"destination" : [ "obj-6", 2 ],
					"disabled" : 0,
					"hidden" : 0,
					"source" : [ "obj-5", 0 ]
				}

			}
, 			{
				"patchline" : 				{
					"destination" : [ "obj-4", 0 ],
					"disabled" : 0,
					"hidden" : 0,
					"source" : [ "obj-6", 0 ]
				}

			}
 ]
	}

}
