{
	"patcher" : 	{
		"fileversion" : 1,
		"appversion" : 		{
			"major" : 7,
			"minor" : 3,
			"revision" : 3,
			"architecture" : "x64",
			"modernui" : 1
		}
,
		"rect" : [ 489.0, 110.0, 533.0, 647.0 ],
		"editing_bgcolor" : [ 0.9, 0.9, 0.9, 1.0 ],
		"bglocked" : 0,
		"openinpresentation" : 0,
		"default_fontsize" : 12.0,
		"default_fontface" : 0,
		"default_fontname" : "Arial",
		"gridonopen" : 1,
		"gridsize" : [ 15.0, 15.0 ],
		"gridsnaponopen" : 1,
		"objectsnaponopen" : 1,
		"statusbarvisible" : 2,
		"toolbarvisible" : 1,
		"lefttoolbarpinned" : 0,
		"toptoolbarpinned" : 0,
		"righttoolbarpinned" : 0,
		"bottomtoolbarpinned" : 0,
		"toolbars_unpinned_last_save" : 0,
		"tallnewobj" : 0,
		"boxanimatetime" : 200,
		"enablehscroll" : 1,
		"enablevscroll" : 1,
		"devicewidth" : 0.0,
		"description" : "",
		"digest" : "",
		"tags" : "",
		"style" : "",
		"subpatcher_template" : "",
		"boxes" : [ 			{
				"box" : 				{
					"id" : "obj-3",
					"maxclass" : "comment",
					"numinlets" : 1,
					"numoutlets" : 0,
					"patching_rect" : [ 50.25, 597.0, 99.0, 20.0 ],
					"style" : "",
					"text" : "Velocity (km / s)"
				}

			}
, 			{
				"box" : 				{
					"code" : "// Parameters.\r\nParam dx(0.005);\t// m / px\r\npx = 1 / dim;\t\t// px / uv\r\n\r\n// Neighboring coordinates.\r\nleft = norm + vec(-px.x, 0);\r\nup = norm + vec(0, -px.y);\r\ndown = norm + vec(0, px.y);\r\nright = norm + vec(px.x, 0);\r\n\r\n// Neighboring pressure.\r\npl = sample(in1, left, boundmode=\"wrap\").x;\r\npr = sample(in1, right, boundmode=\"wrap\").x;\r\npu = sample(in1, up, boundmode=\"wrap\").x;\r\npd = sample(in1, down, boundmode=\"wrap\").x;\r\npc = sample(in1, norm, boundmode=\"wrap\").x;\r\n\r\n// Neighboring obstacle mask.\r\nobl = sample(in3, left, boundmode=\"wrap\").x;\r\nobr = sample(in3, right, boundmode=\"wrap\").x;\r\nobu = sample(in3, up, boundmode=\"wrap\").x;\r\nobd = sample(in3, down, boundmode=\"wrap\").x;\r\n\r\n// If pressure is masked, replace with center pressure.\r\npl = (1 - obl) * pc + obl * pl;\r\npr = (1 - obr) * pc + obr * pr;\r\npu = (1 - obu) * pc + obu * pu;\r\npd = (1 - obd) * pc + obd * pd;\r\n\r\n// Pressure gradient.\r\ngrad = vec(pr.x - pl.x, pd.x - pu.x) / (2 * dx);\r\n\r\n// Subtract pressure gradient from velocity.\r\n// m/s / m/px -> px/s, m/s - m^2/(px s) / m/px -> m/s - m/s\r\nout1 = (in2 - grad) * in3.x;",
					"fontface" : 0,
					"fontname" : "Arial",
					"fontsize" : 12.0,
					"id" : "obj-7",
					"maxclass" : "codebox",
					"numinlets" : 3,
					"numoutlets" : 1,
					"outlettype" : [ "" ],
					"patching_rect" : [ 21.25, 59.0, 434.0, 520.0 ],
					"style" : ""
				}

			}
, 			{
				"box" : 				{
					"bgcolor" : [ 0.290196, 0.309804, 0.301961, 0.0 ],
					"color" : [ 0.650963, 0.655203, 0.777106, 1.0 ],
					"id" : "obj-6",
					"maxclass" : "newobj",
					"numinlets" : 0,
					"numoutlets" : 1,
					"outlettype" : [ "" ],
					"patching_rect" : [ 436.25, 20.0, 84.0, 22.0 ],
					"style" : "",
					"text" : "in 3 obstacles",
					"textcolor" : [ 0.0, 0.0, 0.0, 1.0 ]
				}

			}
, 			{
				"box" : 				{
					"bgcolor" : [ 0.682353, 0.705882, 0.776471, 0.0 ],
					"color" : [ 0.650963, 0.655203, 0.777106, 1.0 ],
					"id" : "obj-45",
					"maxclass" : "newobj",
					"numinlets" : 1,
					"numoutlets" : 0,
					"patching_rect" : [ 21.25, 596.0, 27.0, 22.0 ],
					"style" : "",
					"text" : "out",
					"textcolor" : [ 0.0, 0.0, 0.0, 1.0 ]
				}

			}
, 			{
				"box" : 				{
					"bgcolor" : [ 0.682353, 0.705882, 0.776471, 0.0 ],
					"color" : [ 0.650963, 0.655203, 0.777106, 1.0 ],
					"id" : "obj-43",
					"maxclass" : "newobj",
					"numinlets" : 0,
					"numoutlets" : 1,
					"outlettype" : [ "" ],
					"patching_rect" : [ 228.75, 20.0, 73.0, 22.0 ],
					"style" : "",
					"text" : "in 2 velocity",
					"textcolor" : [ 0.0, 0.0, 0.0, 1.0 ]
				}

			}
, 			{
				"box" : 				{
					"bgcolor" : [ 0.682353, 0.705882, 0.776471, 0.0 ],
					"color" : [ 0.650963, 0.655203, 0.777106, 1.0 ],
					"id" : "obj-2",
					"maxclass" : "newobj",
					"numinlets" : 0,
					"numoutlets" : 1,
					"outlettype" : [ "" ],
					"patching_rect" : [ 21.25, 20.0, 80.0, 22.0 ],
					"style" : "",
					"text" : "in 1 pressure",
					"textcolor" : [ 0.0, 0.0, 0.0, 1.0 ]
				}

			}
 ],
		"lines" : [ 			{
				"patchline" : 				{
					"destination" : [ "obj-7", 0 ],
					"disabled" : 0,
					"hidden" : 0,
					"source" : [ "obj-2", 0 ]
				}

			}
, 			{
				"patchline" : 				{
					"destination" : [ "obj-7", 1 ],
					"disabled" : 0,
					"hidden" : 0,
					"source" : [ "obj-43", 0 ]
				}

			}
, 			{
				"patchline" : 				{
					"destination" : [ "obj-7", 2 ],
					"disabled" : 0,
					"hidden" : 0,
					"source" : [ "obj-6", 0 ]
				}

			}
, 			{
				"patchline" : 				{
					"destination" : [ "obj-45", 0 ],
					"disabled" : 0,
					"hidden" : 0,
					"source" : [ "obj-7", 0 ]
				}

			}
 ]
	}

}
