{
	"patcher" : 	{
		"fileversion" : 1,
		"appversion" : 		{
			"major" : 7,
			"minor" : 3,
			"revision" : 4,
			"architecture" : "x64",
			"modernui" : 1
		}
,
		"rect" : [ 1003.0, 104.0, 546.0, 704.0 ],
		"editing_bgcolor" : [ 0.9, 0.9, 0.9, 1.0 ],
		"bglocked" : 0,
		"openinpresentation" : 0,
		"default_fontsize" : 12.0,
		"default_fontface" : 0,
		"default_fontname" : "Arial",
		"gridonopen" : 1,
		"gridsize" : [ 15.0, 15.0 ],
		"gridsnaponopen" : 1,
		"objectsnaponopen" : 1,
		"statusbarvisible" : 2,
		"toolbarvisible" : 1,
		"lefttoolbarpinned" : 0,
		"toptoolbarpinned" : 0,
		"righttoolbarpinned" : 0,
		"bottomtoolbarpinned" : 0,
		"toolbars_unpinned_last_save" : 0,
		"tallnewobj" : 0,
		"boxanimatetime" : 200,
		"enablehscroll" : 1,
		"enablevscroll" : 1,
		"devicewidth" : 0.0,
		"description" : "",
		"digest" : "",
		"tags" : "",
		"style" : "",
		"subpatcher_template" : "",
		"boxes" : [ 			{
				"box" : 				{
					"code" : "Param offset(3.0);\r\nParam lambda(0.01);\r\nParam threshold(0.04);\r\n\r\nscale = min(dim.x, dim.y);\r\nox = vec(offset / scale, 0);\r\noy = vec(0, offset / scale);\r\n\r\ndiff = in1.xyz - in2.xyz;\r\ngradx = sample(in2, norm + ox).xyz - sample(in2, norm - ox).xyz +\r\n\t\tsample(in1, norm + ox).xyz - sample(in1, norm - ox).xyz;\r\ngrady = sample(in2, norm + oy).xyz - sample(in2, norm - oy).xyz +\r\n\t\tsample(in1, norm + oy).xyz - sample(in1, norm - oy).xyz;\r\n\r\ngradmag = sqrt(gradx*gradx + grady*grady + vec(1,1,1) * lambda);\r\n\r\nvx = diff * gradx / gradmag;\r\nvy = diff * grady / gradmag;\r\n\r\nflow = vec(\r\n\t-(vx.x + vx.y + vx.z) / 3,\r\n\t-(vy.x + vy.y + vy.z) / 3\r\n);\r\n\r\nstrength = length(flow);\r\n\r\nif (strength * threshold > 0) {\r\n\tif (strength < threshold) {\r\n\t\tflow = vec(0, 0);\r\n\t} else {\r\n\t\tstrength = (strength - threshold) / (1 - threshold);\r\n\t\tflow = normalize(flow) * strength;\r\n\t}\r\n}\r\n\r\nout1 = vec(flow.x, flow.y, 0, 1);\r\nout2 = in1;",
					"fontface" : 0,
					"fontname" : "Arial",
					"fontsize" : 12.0,
					"id" : "obj-5",
					"maxclass" : "codebox",
					"numinlets" : 2,
					"numoutlets" : 2,
					"outlettype" : [ "", "" ],
					"patching_rect" : [ 13.0, 61.0, 471.0, 534.0 ],
					"style" : ""
				}

			}
, 			{
				"box" : 				{
					"id" : "obj-4",
					"maxclass" : "newobj",
					"numinlets" : 1,
					"numoutlets" : 0,
					"patching_rect" : [ 465.0, 612.0, 37.0, 22.0 ],
					"style" : "ecs-io",
					"text" : "out 2"
				}

			}
, 			{
				"box" : 				{
					"id" : "obj-3",
					"maxclass" : "newobj",
					"numinlets" : 0,
					"numoutlets" : 1,
					"outlettype" : [ "" ],
					"patching_rect" : [ 465.0, 22.0, 79.0, 22.0 ],
					"style" : "ecs-io",
					"text" : "in 2 previous"
				}

			}
, 			{
				"box" : 				{
					"id" : "obj-2",
					"maxclass" : "newobj",
					"numinlets" : 1,
					"numoutlets" : 0,
					"patching_rect" : [ 13.0, 612.0, 37.0, 22.0 ],
					"style" : "ecs-io",
					"text" : "out 1"
				}

			}
, 			{
				"box" : 				{
					"id" : "obj-1",
					"maxclass" : "newobj",
					"numinlets" : 0,
					"numoutlets" : 1,
					"outlettype" : [ "" ],
					"patching_rect" : [ 13.0, 22.0, 64.0, 22.0 ],
					"style" : "ecs-io",
					"text" : "in 1 frame"
				}

			}
 ],
		"lines" : [ 			{
				"patchline" : 				{
					"destination" : [ "obj-5", 0 ],
					"source" : [ "obj-1", 0 ]
				}

			}
, 			{
				"patchline" : 				{
					"destination" : [ "obj-5", 1 ],
					"source" : [ "obj-3", 0 ]
				}

			}
, 			{
				"patchline" : 				{
					"destination" : [ "obj-2", 0 ],
					"source" : [ "obj-5", 0 ]
				}

			}
, 			{
				"patchline" : 				{
					"destination" : [ "obj-4", 0 ],
					"source" : [ "obj-5", 1 ]
				}

			}
 ],
		"styles" : [ 			{
				"name" : "ecs-io",
				"default" : 				{
					"bgcolor" : [ 0.290196, 0.309804, 0.301961, 0.0 ],
					"textcolor_inverse" : [ 0.0, 0.0, 0.0, 1.0 ],
					"accentcolor" : [ 0.650963, 0.655203, 0.777106, 1.0 ]
				}
,
				"parentstyle" : "",
				"multi" : 0
			}
 ]
	}

}
