{
	"patcher" : 	{
		"fileversion" : 1,
		"appversion" : 		{
			"major" : 7,
			"minor" : 3,
			"revision" : 3,
			"architecture" : "x64",
			"modernui" : 1
		}
,
		"rect" : [ 437.0, 168.0, 690.0, 633.0 ],
		"editing_bgcolor" : [ 0.9, 0.9, 0.9, 1.0 ],
		"bglocked" : 0,
		"openinpresentation" : 0,
		"default_fontsize" : 12.0,
		"default_fontface" : 0,
		"default_fontname" : "Arial",
		"gridonopen" : 1,
		"gridsize" : [ 15.0, 15.0 ],
		"gridsnaponopen" : 1,
		"objectsnaponopen" : 1,
		"statusbarvisible" : 2,
		"toolbarvisible" : 1,
		"lefttoolbarpinned" : 0,
		"toptoolbarpinned" : 0,
		"righttoolbarpinned" : 0,
		"bottomtoolbarpinned" : 0,
		"toolbars_unpinned_last_save" : 0,
		"tallnewobj" : 0,
		"boxanimatetime" : 200,
		"enablehscroll" : 1,
		"enablevscroll" : 1,
		"devicewidth" : 0.0,
		"description" : "",
		"digest" : "",
		"tags" : "",
		"style" : "",
		"subpatcher_template" : "",
		"boxes" : [ 			{
				"box" : 				{
					"code" : "// Parameters.\r\nParam dry_cp(1003);\t\t\t\t\t\t// J / kg K\r\nParam dry_cv(716);\t\t\t\t\t\t// J / kg K\r\nParam base_pressure(101.3);\t\t\t\t// kPa\r\nParam latent_heat_vaporization(2.5E6);\t// J / kg\r\n\r\np0 = base_pressure;\t\t\t\t\t\t// kPa\r\nRd = dry_cp - dry_cv;\t\t\t\t\t// J / kg K\r\nLv = latent_heat_vaporization;\t\t\t// J / kg\r\n\r\n// Variables.\r\nptemp = in1.z;\t\t\t\t\t\t\t// K\r\nC = in2.x;\t\t\t\t\t\t\t\t// 0-1\r\np = in3.x;\t\t\t\t\t\t\t\t// kPa\r\n\r\n// Compute.\r\nexner = pow(p / p0, -(Rd / dry_cp));\r\nptemp += (Lv * C) / (dry_cp * exner);\r\n\r\n// Output: qc, qv, potential temperature \r\nout1 = vec(in1.x, in1.y, ptemp);",
					"fontface" : 0,
					"fontname" : "Arial",
					"fontsize" : 12.0,
					"id" : "obj-5",
					"maxclass" : "codebox",
					"numinlets" : 3,
					"numoutlets" : 1,
					"outlettype" : [ "" ],
					"patching_rect" : [ 22.0, 54.0, 382.0, 325.0 ],
					"style" : ""
				}

			}
, 			{
				"box" : 				{
					"id" : "obj-25",
					"linecount" : 12,
					"maxclass" : "comment",
					"numinlets" : 1,
					"numoutlets" : 0,
					"patching_rect" : [ 22.0, 435.0, 443.0, 167.0 ],
					"style" : "",
					"text" : "Compute thermodynamics equation to update potential temperature according to air saturation.\n\n\\Pi = \\frac{p}{p_0)^\\frac{Rd}{c_{pd}}\n\\theta = \\theta' + \\frac{L}{c_{pd} \\Pi} C\n\nc_p: specific temperature of dry air at constant pressure (J / kg K)\nc_v: specific temperature of dry air at constant volume (J / kg K)\n\\theta: updated potential temperature (K)\n\\theta': advected potential temperature (K)\nL: latent heat vaporization, released heat from evaporation of condensed water.\nC: condensation rate"
				}

			}
, 			{
				"box" : 				{
					"bgcolor" : [ 0.290196, 0.309804, 0.301961, 0.0 ],
					"color" : [ 0.650963, 0.655203, 0.777106, 1.0 ],
					"id" : "obj-23",
					"maxclass" : "newobj",
					"numinlets" : 1,
					"numoutlets" : 0,
					"patching_rect" : [ 22.0, 396.0, 27.0, 22.0 ],
					"style" : "",
					"text" : "out",
					"textcolor" : [ 0.0, 0.0, 0.0, 1.0 ]
				}

			}
, 			{
				"box" : 				{
					"bgcolor" : [ 0.290196, 0.309804, 0.301961, 0.0 ],
					"color" : [ 0.650963, 0.655203, 0.777106, 1.0 ],
					"id" : "obj-16",
					"maxclass" : "newobj",
					"numinlets" : 0,
					"numoutlets" : 1,
					"outlettype" : [ "" ],
					"patching_rect" : [ 385.0, 15.0, 80.0, 22.0 ],
					"style" : "",
					"text" : "in 3 pressure",
					"textcolor" : [ 0.0, 0.0, 0.0, 1.0 ]
				}

			}
, 			{
				"box" : 				{
					"bgcolor" : [ 0.290196, 0.309804, 0.301961, 0.0 ],
					"color" : [ 0.650963, 0.655203, 0.777106, 1.0 ],
					"id" : "obj-8",
					"maxclass" : "newobj",
					"numinlets" : 0,
					"numoutlets" : 1,
					"outlettype" : [ "" ],
					"patching_rect" : [ 203.5, 15.0, 105.0, 22.0 ],
					"style" : "",
					"text" : "in 2 condensation",
					"textcolor" : [ 0.0, 0.0, 0.0, 1.0 ]
				}

			}
, 			{
				"box" : 				{
					"bgcolor" : [ 0.290196, 0.309804, 0.301961, 0.0 ],
					"color" : [ 0.650963, 0.655203, 0.777106, 1.0 ],
					"id" : "obj-1",
					"maxclass" : "newobj",
					"numinlets" : 0,
					"numoutlets" : 1,
					"outlettype" : [ "" ],
					"patching_rect" : [ 22.0, 15.0, 89.0, 22.0 ],
					"style" : "",
					"text" : "in 1 watertemp",
					"textcolor" : [ 0.0, 0.0, 0.0, 1.0 ]
				}

			}
 ],
		"lines" : [ 			{
				"patchline" : 				{
					"destination" : [ "obj-5", 0 ],
					"disabled" : 0,
					"hidden" : 0,
					"source" : [ "obj-1", 0 ]
				}

			}
, 			{
				"patchline" : 				{
					"destination" : [ "obj-5", 2 ],
					"disabled" : 0,
					"hidden" : 0,
					"source" : [ "obj-16", 0 ]
				}

			}
, 			{
				"patchline" : 				{
					"destination" : [ "obj-23", 0 ],
					"disabled" : 0,
					"hidden" : 0,
					"source" : [ "obj-5", 0 ]
				}

			}
, 			{
				"patchline" : 				{
					"destination" : [ "obj-5", 1 ],
					"disabled" : 0,
					"hidden" : 0,
					"source" : [ "obj-8", 0 ]
				}

			}
 ]
	}

}
