{
	"patcher" : 	{
		"fileversion" : 1,
		"appversion" : 		{
			"major" : 7,
			"minor" : 3,
			"revision" : 3,
			"architecture" : "x64",
			"modernui" : 1
		}
,
		"rect" : [ 862.0, 135.0, 558.0, 551.0 ],
		"editing_bgcolor" : [ 0.9, 0.9, 0.9, 1.0 ],
		"bglocked" : 0,
		"openinpresentation" : 0,
		"default_fontsize" : 12.0,
		"default_fontface" : 0,
		"default_fontname" : "Arial",
		"gridonopen" : 1,
		"gridsize" : [ 15.0, 15.0 ],
		"gridsnaponopen" : 1,
		"objectsnaponopen" : 1,
		"statusbarvisible" : 2,
		"toolbarvisible" : 1,
		"lefttoolbarpinned" : 0,
		"toptoolbarpinned" : 0,
		"righttoolbarpinned" : 0,
		"bottomtoolbarpinned" : 0,
		"toolbars_unpinned_last_save" : 0,
		"tallnewobj" : 0,
		"boxanimatetime" : 200,
		"enablehscroll" : 1,
		"enablevscroll" : 1,
		"devicewidth" : 0.0,
		"description" : "",
		"digest" : "",
		"tags" : "",
		"style" : "",
		"subpatcher_template" : "",
		"boxes" : [ 			{
				"box" : 				{
					"code" : "px = 1. / dim;\r\n\r\nleft = norm + vec(-px.x, 0);\r\nup = norm + vec(0, -px.y);\r\ndown = norm + vec(0, px.y);\r\nright = norm + vec(px.x, 0);\r\n\r\n//left = vec(wrap(left.x,0,1),wrap(left.y,0,1));\r\n//up = vec(wrap(up.x,0,1),wrap(up.y,0,1));\r\n//down = vec(wrap(down.x,0,1),wrap(down.y,0,1));\r\n//right = vec(wrap(right.x,0,1),wrap(right.y,0,1));\r\n\r\nobs_r = sample(in2, right).x;\r\nobs_l = sample(in2, left).x;\r\nobs_u = sample(in2, up).x;\r\nobs_d = sample(in2, down).x;\r\n\r\nvel_r = sample(in1, right);\r\nvel_l = sample(in1, left);\r\nvel_u = sample(in1, up);\r\nvel_d = sample(in1, down);\r\n\r\nvel_c = sample(in1, norm);\r\n\r\nvel_l = vel_c * (1 - obs_l) + vel_l * obs_l;\r\nvel_r = vel_c * (1 - obs_r) + vel_r * obs_r;\r\nvel_d = vel_c * (1 - obs_d) + vel_d * obs_d;\r\nvel_u = vel_c * (1 - obs_u) + vel_u * obs_u;\r\n\r\nout1 = 0.5 * ((vel_r.y - vel_l.y) - (vel_d.x - vel_u.x));\r\n",
					"fontface" : 0,
					"fontname" : "Arial",
					"fontsize" : 12.0,
					"id" : "obj-8",
					"maxclass" : "codebox",
					"numinlets" : 2,
					"numoutlets" : 1,
					"outlettype" : [ "" ],
					"patching_rect" : [ 16.75, 59.0, 419.0, 395.0 ],
					"style" : ""
				}

			}
, 			{
				"box" : 				{
					"bgcolor" : [ 0.290196, 0.309804, 0.301961, 0.0 ],
					"color" : [ 0.650963, 0.655203, 0.777106, 1.0 ],
					"id" : "obj-55",
					"maxclass" : "newobj",
					"numinlets" : 1,
					"numoutlets" : 0,
					"patching_rect" : [ 16.75, 471.0, 27.0, 22.0 ],
					"style" : "",
					"text" : "out",
					"textcolor" : [ 0.0, 0.0, 0.0, 1.0 ]
				}

			}
, 			{
				"box" : 				{
					"bgcolor" : [ 0.290196, 0.309804, 0.301961, 0.0 ],
					"color" : [ 0.650963, 0.655203, 0.777106, 1.0 ],
					"id" : "obj-36",
					"maxclass" : "newobj",
					"numinlets" : 0,
					"numoutlets" : 1,
					"outlettype" : [ "" ],
					"patching_rect" : [ 416.75, 20.0, 78.0, 22.0 ],
					"style" : "",
					"text" : "in 2 obstacle",
					"textcolor" : [ 0.0, 0.0, 0.0, 1.0 ]
				}

			}
, 			{
				"box" : 				{
					"bgcolor" : [ 0.290196, 0.309804, 0.301961, 0.0 ],
					"color" : [ 0.650963, 0.655203, 0.777106, 1.0 ],
					"id" : "obj-35",
					"maxclass" : "newobj",
					"numinlets" : 0,
					"numoutlets" : 1,
					"outlettype" : [ "" ],
					"patching_rect" : [ 16.75, 20.0, 73.0, 22.0 ],
					"style" : "",
					"text" : "in 1 velocity",
					"textcolor" : [ 0.0, 0.0, 0.0, 1.0 ]
				}

			}
 ],
		"lines" : [ 			{
				"patchline" : 				{
					"destination" : [ "obj-8", 0 ],
					"disabled" : 0,
					"hidden" : 0,
					"source" : [ "obj-35", 0 ]
				}

			}
, 			{
				"patchline" : 				{
					"destination" : [ "obj-8", 1 ],
					"disabled" : 0,
					"hidden" : 0,
					"source" : [ "obj-36", 0 ]
				}

			}
, 			{
				"patchline" : 				{
					"destination" : [ "obj-55", 0 ],
					"disabled" : 0,
					"hidden" : 0,
					"source" : [ "obj-8", 0 ]
				}

			}
 ]
	}

}
