{
	"patcher" : 	{
		"fileversion" : 1,
		"appversion" : 		{
			"major" : 8,
			"minor" : 0,
			"revision" : 2,
			"architecture" : "x64",
			"modernui" : 1
		}
,
		"classnamespace" : "box",
		"rect" : [ 802.0, 406.0, 551.0, 213.0 ],
		"bglocked" : 0,
		"openinpresentation" : 1,
		"default_fontsize" : 12.0,
		"default_fontface" : 0,
		"default_fontname" : "Arial",
		"gridonopen" : 1,
		"gridsize" : [ 15.0, 15.0 ],
		"gridsnaponopen" : 1,
		"objectsnaponopen" : 1,
		"statusbarvisible" : 2,
		"toolbarvisible" : 1,
		"lefttoolbarpinned" : 0,
		"toptoolbarpinned" : 0,
		"righttoolbarpinned" : 0,
		"bottomtoolbarpinned" : 0,
		"toolbars_unpinned_last_save" : 0,
		"tallnewobj" : 0,
		"boxanimatetime" : 200,
		"enablehscroll" : 1,
		"enablevscroll" : 1,
		"devicewidth" : 0.0,
		"description" : "",
		"digest" : "",
		"tags" : "",
		"style" : "",
		"subpatcher_template" : "",
		"boxes" : [ 			{
				"box" : 				{
					"id" : "obj-54",
					"maxclass" : "newobj",
					"numinlets" : 6,
					"numoutlets" : 1,
					"outlettype" : [ "" ],
					"patching_rect" : [ 1134.5, 721.0, 97.0, 22.0 ],
					"text" : "scale 0. 1. 1 127"
				}

			}
, 			{
				"box" : 				{
					"id" : "obj-55",
					"maxclass" : "newobj",
					"numinlets" : 6,
					"numoutlets" : 1,
					"outlettype" : [ "" ],
					"patching_rect" : [ 1054.5, 697.0, 97.0, 22.0 ],
					"text" : "scale 0. 1. 1 127"
				}

			}
, 			{
				"box" : 				{
					"id" : "obj-56",
					"maxclass" : "pictslider",
					"numinlets" : 2,
					"numoutlets" : 2,
					"outlettype" : [ "int", "int" ],
					"parameter_enable" : 0,
					"patching_rect" : [ 1054.5, 745.0, 100.0, 100.0 ],
					"presentation" : 1,
					"presentation_rect" : [ 374.0, 5.0, 54.0, 56.0 ]
				}

			}
, 			{
				"box" : 				{
					"id" : "obj-57",
					"maxclass" : "newobj",
					"numinlets" : 6,
					"numoutlets" : 1,
					"outlettype" : [ "" ],
					"patching_rect" : [ 955.5, 728.0, 97.0, 22.0 ],
					"text" : "scale 0. 1. 1 127"
				}

			}
, 			{
				"box" : 				{
					"id" : "obj-58",
					"maxclass" : "newobj",
					"numinlets" : 6,
					"numoutlets" : 1,
					"outlettype" : [ "" ],
					"patching_rect" : [ 875.5, 704.0, 97.0, 22.0 ],
					"text" : "scale 0. 1. 1 127"
				}

			}
, 			{
				"box" : 				{
					"id" : "obj-62",
					"maxclass" : "pictslider",
					"numinlets" : 2,
					"numoutlets" : 2,
					"outlettype" : [ "int", "int" ],
					"parameter_enable" : 0,
					"patching_rect" : [ 875.5, 752.0, 100.0, 100.0 ],
					"presentation" : 1,
					"presentation_rect" : [ 261.58331298828125, 5.0, 54.0, 56.0 ]
				}

			}
, 			{
				"box" : 				{
					"id" : "obj-51",
					"maxclass" : "newobj",
					"numinlets" : 6,
					"numoutlets" : 1,
					"outlettype" : [ "" ],
					"patching_rect" : [ 1133.0, 546.0, 97.0, 22.0 ],
					"text" : "scale 0. 1. 1 127"
				}

			}
, 			{
				"box" : 				{
					"id" : "obj-52",
					"maxclass" : "newobj",
					"numinlets" : 6,
					"numoutlets" : 1,
					"outlettype" : [ "" ],
					"patching_rect" : [ 1053.0, 522.0, 97.0, 22.0 ],
					"text" : "scale 0. 1. 1 127"
				}

			}
, 			{
				"box" : 				{
					"id" : "obj-53",
					"maxclass" : "pictslider",
					"numinlets" : 2,
					"numoutlets" : 2,
					"outlettype" : [ "int", "int" ],
					"parameter_enable" : 0,
					"patching_rect" : [ 1053.0, 570.0, 100.0, 100.0 ],
					"presentation" : 1,
					"presentation_rect" : [ 317.58331298828125, 5.0, 54.41668701171875, 56.0 ]
				}

			}
, 			{
				"box" : 				{
					"id" : "obj-50",
					"maxclass" : "newobj",
					"numinlets" : 6,
					"numoutlets" : 1,
					"outlettype" : [ "" ],
					"patching_rect" : [ 954.0, 553.0, 97.0, 22.0 ],
					"text" : "scale 0. 1. 1 127"
				}

			}
, 			{
				"box" : 				{
					"id" : "obj-49",
					"maxclass" : "newobj",
					"numinlets" : 6,
					"numoutlets" : 1,
					"outlettype" : [ "" ],
					"patching_rect" : [ 874.0, 529.0, 97.0, 22.0 ],
					"text" : "scale 0. 1. 1 127"
				}

			}
, 			{
				"box" : 				{
					"id" : "obj-48",
					"maxclass" : "pictslider",
					"numinlets" : 2,
					"numoutlets" : 2,
					"outlettype" : [ "int", "int" ],
					"parameter_enable" : 0,
					"patching_rect" : [ 874.0, 577.0, 100.0, 100.0 ],
					"presentation" : 1,
					"presentation_rect" : [ 205.583328247070312, 5.0, 54.0, 56.0 ]
				}

			}
, 			{
				"box" : 				{
					"id" : "obj-34",
					"maxclass" : "newobj",
					"numinlets" : 1,
					"numoutlets" : 2,
					"outlettype" : [ "float", "float" ],
					"patching_rect" : [ 322.0, 88.0, 74.0, 22.0 ],
					"text" : "unpack 0. 0."
				}

			}
, 			{
				"box" : 				{
					"id" : "obj-33",
					"maxclass" : "newobj",
					"numinlets" : 1,
					"numoutlets" : 2,
					"outlettype" : [ "float", "float" ],
					"patching_rect" : [ 246.0, 88.0, 74.0, 22.0 ],
					"text" : "unpack 0. 0."
				}

			}
, 			{
				"box" : 				{
					"id" : "obj-28",
					"maxclass" : "newobj",
					"numinlets" : 1,
					"numoutlets" : 1,
					"outlettype" : [ "bang" ],
					"patching_rect" : [ 158.0, 96.0, 22.0, 22.0 ],
					"text" : "t b"
				}

			}
, 			{
				"box" : 				{
					"id" : "obj-27",
					"maxclass" : "message",
					"numinlets" : 2,
					"numoutlets" : 1,
					"outlettype" : [ "" ],
					"patching_rect" : [ 155.5, 120.0, 85.0, 22.0 ],
					"text" : "0. 0.33 0.66 1."
				}

			}
, 			{
				"box" : 				{
					"id" : "obj-25",
					"maxclass" : "newobj",
					"numinlets" : 3,
					"numoutlets" : 1,
					"outlettype" : [ "" ],
					"patching_rect" : [ 469.75, 157.0, 219.0, 22.0 ],
					"text" : "vexpr $f1*($f3-$f2)+$f2 @scalarmode 1"
				}

			}
, 			{
				"box" : 				{
					"id" : "obj-24",
					"maxclass" : "newobj",
					"numinlets" : 3,
					"numoutlets" : 1,
					"outlettype" : [ "" ],
					"patching_rect" : [ 246.0, 159.0, 219.0, 22.0 ],
					"text" : "vexpr $f1*($f3-$f2)+$f2 @scalarmode 1"
				}

			}
, 			{
				"box" : 				{
					"id" : "obj-5",
					"maxclass" : "newobj",
					"numinlets" : 1,
					"numoutlets" : 3,
					"outlettype" : [ "", "", "FullPacket" ],
					"patching_rect" : [ 246.0, 64.0, 125.0, 22.0 ],
					"text" : "o.route /point1 /point2"
				}

			}
, 			{
				"box" : 				{
					"id" : "obj-201",
					"maxclass" : "jit.pwindow",
					"numinlets" : 1,
					"numoutlets" : 2,
					"outlettype" : [ "", "" ],
					"patching_rect" : [ 1090.75, 64.0, 80.0, 60.0 ],
					"presentation" : 1,
					"presentation_rect" : [ 374.0, 64.0, 54.0, 53.599998474121094 ]
				}

			}
, 			{
				"box" : 				{
					"id" : "obj-200",
					"maxclass" : "jit.pwindow",
					"numinlets" : 1,
					"numoutlets" : 2,
					"outlettype" : [ "", "" ],
					"patching_rect" : [ 993.75, 64.0, 80.0, 60.0 ],
					"presentation" : 1,
					"presentation_rect" : [ 317.58331298828125, 64.0, 54.41668701171875, 53.599998474121094 ]
				}

			}
, 			{
				"box" : 				{
					"id" : "obj-199",
					"maxclass" : "jit.pwindow",
					"numinlets" : 1,
					"numoutlets" : 2,
					"outlettype" : [ "", "" ],
					"patching_rect" : [ 911.0, 64.0, 80.0, 60.0 ],
					"presentation" : 1,
					"presentation_rect" : [ 261.58331298828125, 64.0, 53.599998474121094, 54.0 ]
				}

			}
, 			{
				"box" : 				{
					"id" : "obj-198",
					"maxclass" : "jit.pwindow",
					"numinlets" : 1,
					"numoutlets" : 2,
					"outlettype" : [ "", "" ],
					"patching_rect" : [ 820.0, 64.0, 80.0, 60.0 ],
					"presentation" : 1,
					"presentation_rect" : [ 205.583328247070312, 64.0, 53.599998474121094, 54.0 ]
				}

			}
, 			{
				"box" : 				{
					"id" : "obj-197",
					"linecount" : 2,
					"maxclass" : "message",
					"numinlets" : 2,
					"numoutlets" : 1,
					"outlettype" : [ "" ],
					"patching_rect" : [ 930.5, 139.0, 134.0, 35.0 ],
					"text" : "0.510942 0.532362 0.559674 0.582344"
				}

			}
, 			{
				"box" : 				{
					"fontface" : 0,
					"fontsize" : 12.0,
					"id" : "obj-193",
					"maxclass" : "o.display",
					"numinlets" : 1,
					"numoutlets" : 1,
					"outlettype" : [ "" ],
					"patching_rect" : [ 229.0, 704.0, 310.0, 34.0 ],
					"presentation" : 1,
					"presentation_rect" : [ 4.583332061767578, 120.0, 423.416656494140625, 34.0 ]
				}

			}
, 			{
				"box" : 				{
					"id" : "obj-189",
					"maxclass" : "message",
					"numinlets" : 2,
					"numoutlets" : 1,
					"outlettype" : [ "" ],
					"patching_rect" : [ 1009.25, 309.0, 45.0, 22.0 ],
					"text" : "0.2 0.2"
				}

			}
, 			{
				"box" : 				{
					"id" : "obj-190",
					"maxclass" : "message",
					"numinlets" : 2,
					"numoutlets" : 1,
					"outlettype" : [ "" ],
					"patching_rect" : [ 976.25, 309.0, 29.5, 22.0 ],
					"text" : "0 0"
				}

			}
, 			{
				"box" : 				{
					"id" : "obj-187",
					"maxclass" : "message",
					"numinlets" : 2,
					"numoutlets" : 1,
					"outlettype" : [ "" ],
					"patching_rect" : [ 891.0, 309.0, 45.0, 22.0 ],
					"text" : "0.2 0.2"
				}

			}
, 			{
				"box" : 				{
					"id" : "obj-188",
					"maxclass" : "message",
					"numinlets" : 2,
					"numoutlets" : 1,
					"outlettype" : [ "" ],
					"patching_rect" : [ 858.0, 309.0, 29.5, 22.0 ],
					"text" : "0 0"
				}

			}
, 			{
				"box" : 				{
					"id" : "obj-185",
					"maxclass" : "message",
					"numinlets" : 2,
					"numoutlets" : 1,
					"outlettype" : [ "" ],
					"patching_rect" : [ 782.0, 309.0, 45.0, 22.0 ],
					"text" : "0.2 0.2"
				}

			}
, 			{
				"box" : 				{
					"id" : "obj-186",
					"maxclass" : "message",
					"numinlets" : 2,
					"numoutlets" : 1,
					"outlettype" : [ "" ],
					"patching_rect" : [ 749.0, 309.0, 29.5, 22.0 ],
					"text" : "0 0"
				}

			}
, 			{
				"box" : 				{
					"id" : "obj-184",
					"maxclass" : "message",
					"numinlets" : 2,
					"numoutlets" : 1,
					"outlettype" : [ "" ],
					"patching_rect" : [ 660.5, 309.0, 45.0, 22.0 ],
					"text" : "0.2 0.2"
				}

			}
, 			{
				"box" : 				{
					"id" : "obj-183",
					"maxclass" : "message",
					"numinlets" : 2,
					"numoutlets" : 1,
					"outlettype" : [ "" ],
					"patching_rect" : [ 627.5, 309.0, 29.5, 22.0 ],
					"text" : "0 0"
				}

			}
, 			{
				"box" : 				{
					"id" : "obj-181",
					"maxclass" : "newobj",
					"numinlets" : 3,
					"numoutlets" : 3,
					"outlettype" : [ "bang", "bang", "" ],
					"patching_rect" : [ 976.25, 285.0, 85.0, 22.0 ],
					"text" : "sel 0 1"
				}

			}
, 			{
				"box" : 				{
					"id" : "obj-180",
					"maxclass" : "newobj",
					"numinlets" : 3,
					"numoutlets" : 3,
					"outlettype" : [ "bang", "bang", "" ],
					"patching_rect" : [ 858.0, 285.0, 85.0, 22.0 ],
					"text" : "sel 0 1"
				}

			}
, 			{
				"box" : 				{
					"id" : "obj-179",
					"maxclass" : "newobj",
					"numinlets" : 3,
					"numoutlets" : 3,
					"outlettype" : [ "bang", "bang", "" ],
					"patching_rect" : [ 749.0, 285.0, 85.0, 22.0 ],
					"text" : "sel 0 1"
				}

			}
, 			{
				"box" : 				{
					"id" : "obj-178",
					"maxclass" : "newobj",
					"numinlets" : 3,
					"numoutlets" : 3,
					"outlettype" : [ "bang", "bang", "" ],
					"patching_rect" : [ 627.5, 285.0, 85.0, 22.0 ],
					"text" : "sel 0 1"
				}

			}
, 			{
				"box" : 				{
					"id" : "obj-177",
					"maxclass" : "newobj",
					"numinlets" : 2,
					"numoutlets" : 1,
					"outlettype" : [ "int" ],
					"patching_rect" : [ 976.25, 261.0, 29.5, 22.0 ],
					"text" : "> 3"
				}

			}
, 			{
				"box" : 				{
					"id" : "obj-176",
					"maxclass" : "newobj",
					"numinlets" : 2,
					"numoutlets" : 1,
					"outlettype" : [ "int" ],
					"patching_rect" : [ 858.25, 261.0, 29.5, 22.0 ],
					"text" : "> 2"
				}

			}
, 			{
				"box" : 				{
					"id" : "obj-174",
					"maxclass" : "newobj",
					"numinlets" : 2,
					"numoutlets" : 1,
					"outlettype" : [ "int" ],
					"patching_rect" : [ 749.0, 261.0, 29.5, 22.0 ],
					"text" : "> 1"
				}

			}
, 			{
				"box" : 				{
					"id" : "obj-173",
					"maxclass" : "newobj",
					"numinlets" : 2,
					"numoutlets" : 1,
					"outlettype" : [ "int" ],
					"patching_rect" : [ 627.5, 261.0, 29.5, 22.0 ],
					"text" : "> 0"
				}

			}
, 			{
				"box" : 				{
					"id" : "obj-172",
					"maxclass" : "newobj",
					"numinlets" : 2,
					"numoutlets" : 2,
					"outlettype" : [ "", "" ],
					"patching_rect" : [ 627.5, 209.0, 37.0, 22.0 ],
					"text" : "zl len"
				}

			}
, 			{
				"box" : 				{
					"id" : "obj-171",
					"linecount" : 3,
					"maxclass" : "newobj",
					"numinlets" : 1,
					"numoutlets" : 3,
					"outlettype" : [ "", "", "" ],
					"patching_rect" : [ 976.25, 343.0, 84.0, 49.0 ],
					"restore" : [ 0.2, 0.2 ],
					"saved_object_attributes" : 					{
						"parameter_enable" : 0,
						"parameter_mappable" : 0
					}
,
					"text" : "pattr @bindto roi4::src_dim @invisible 1",
					"varname" : "u957000376"
				}

			}
, 			{
				"box" : 				{
					"id" : "obj-170",
					"linecount" : 3,
					"maxclass" : "newobj",
					"numinlets" : 1,
					"numoutlets" : 3,
					"outlettype" : [ "", "", "" ],
					"patching_rect" : [ 858.0, 343.0, 84.0, 49.0 ],
					"restore" : [ 0.2, 0.2 ],
					"saved_object_attributes" : 					{
						"parameter_enable" : 0,
						"parameter_mappable" : 0
					}
,
					"text" : "pattr @bindto roi3::src_dim @invisible 1",
					"varname" : "u630000378"
				}

			}
, 			{
				"box" : 				{
					"id" : "obj-169",
					"linecount" : 3,
					"maxclass" : "newobj",
					"numinlets" : 1,
					"numoutlets" : 3,
					"outlettype" : [ "", "", "" ],
					"patching_rect" : [ 749.0, 343.0, 84.0, 49.0 ],
					"restore" : [ 0.2, 0.2 ],
					"saved_object_attributes" : 					{
						"parameter_enable" : 0,
						"parameter_mappable" : 0
					}
,
					"text" : "pattr @bindto roi2::src_dim @invisible 1",
					"varname" : "u972000380"
				}

			}
, 			{
				"box" : 				{
					"id" : "obj-168",
					"linecount" : 3,
					"maxclass" : "newobj",
					"numinlets" : 1,
					"numoutlets" : 3,
					"outlettype" : [ "", "", "" ],
					"patching_rect" : [ 627.5, 343.0, 84.0, 49.0 ],
					"restore" : [ 0.2, 0.2 ],
					"saved_object_attributes" : 					{
						"parameter_enable" : 0,
						"parameter_mappable" : 0
					}
,
					"text" : "pattr @bindto roi1::src_dim @invisible 1",
					"varname" : "u268000382"
				}

			}
, 			{
				"box" : 				{
					"id" : "obj-134",
					"maxclass" : "newobj",
					"numinlets" : 1,
					"numoutlets" : 2,
					"outlettype" : [ "", "FullPacket" ],
					"patching_rect" : [ 246.0, 41.0, 105.0, 22.0 ],
					"text" : "o.route /endpoints"
				}

			}
, 			{
				"box" : 				{
					"id" : "obj-133",
					"maxclass" : "newobj",
					"numinlets" : 2,
					"numoutlets" : 1,
					"outlettype" : [ "" ],
					"patching_rect" : [ 515.75, 309.0, 55.0, 22.0 ],
					"text" : "pak 0. 0."
				}

			}
, 			{
				"box" : 				{
					"id" : "obj-132",
					"maxclass" : "newobj",
					"numinlets" : 2,
					"numoutlets" : 1,
					"outlettype" : [ "" ],
					"patching_rect" : [ 430.333251953125, 309.0, 55.0, 22.0 ],
					"text" : "pak 0. 0."
				}

			}
, 			{
				"box" : 				{
					"id" : "obj-131",
					"maxclass" : "newobj",
					"numinlets" : 2,
					"numoutlets" : 1,
					"outlettype" : [ "" ],
					"patching_rect" : [ 344.416748046875, 309.0, 55.0, 22.0 ],
					"text" : "pak 0. 0."
				}

			}
, 			{
				"box" : 				{
					"id" : "obj-130",
					"maxclass" : "newobj",
					"numinlets" : 2,
					"numoutlets" : 1,
					"outlettype" : [ "" ],
					"patching_rect" : [ 246.0, 309.0, 55.0, 22.0 ],
					"text" : "pak 0. 0."
				}

			}
, 			{
				"box" : 				{
					"id" : "obj-128",
					"maxclass" : "newobj",
					"numinlets" : 1,
					"numoutlets" : 1,
					"outlettype" : [ "" ],
					"patching_rect" : [ 469.75, 209.0, 79.0, 22.0 ],
					"text" : "vexpr $f1-0.1"
				}

			}
, 			{
				"box" : 				{
					"id" : "obj-129",
					"maxclass" : "newobj",
					"numinlets" : 1,
					"numoutlets" : 4,
					"outlettype" : [ "float", "float", "float", "float" ],
					"patching_rect" : [ 469.75, 233.0, 101.0, 22.0 ],
					"text" : "unpack 0. 0. 0. 0."
				}

			}
, 			{
				"box" : 				{
					"id" : "obj-121",
					"maxclass" : "newobj",
					"numinlets" : 1,
					"numoutlets" : 1,
					"outlettype" : [ "" ],
					"patching_rect" : [ 246.0, 209.0, 79.0, 22.0 ],
					"text" : "vexpr $f1-0.1"
				}

			}
, 			{
				"box" : 				{
					"id" : "obj-120",
					"maxclass" : "newobj",
					"numinlets" : 1,
					"numoutlets" : 4,
					"outlettype" : [ "float", "float", "float", "float" ],
					"patching_rect" : [ 246.0, 233.0, 101.0, 22.0 ],
					"text" : "unpack 0. 0. 0. 0."
				}

			}
, 			{
				"box" : 				{
					"id" : "obj-114",
					"linecount" : 3,
					"maxclass" : "newobj",
					"numinlets" : 1,
					"numoutlets" : 3,
					"outlettype" : [ "", "", "" ],
					"patching_rect" : [ 515.75, 343.0, 84.0, 49.0 ],
					"restore" : [ 202.705419921875006, 166.451712036132818 ],
					"saved_object_attributes" : 					{
						"parameter_enable" : 0,
						"parameter_mappable" : 0
					}
,
					"text" : "pattr @bindto roi4::start_pos @invisible 1",
					"varname" : "u227000384"
				}

			}
, 			{
				"box" : 				{
					"id" : "obj-115",
					"linecount" : 3,
					"maxclass" : "newobj",
					"numinlets" : 1,
					"numoutlets" : 3,
					"outlettype" : [ "", "", "" ],
					"patching_rect" : [ 430.083251953125, 343.0, 84.0, 49.0 ],
					"restore" : [ 193.050469970703119, 178.777972717285166 ],
					"saved_object_attributes" : 					{
						"parameter_enable" : 0,
						"parameter_mappable" : 0
					}
,
					"text" : "pattr @bindto roi3::start_pos @invisible 1",
					"varname" : "u161000386"
				}

			}
, 			{
				"box" : 				{
					"id" : "obj-116",
					"linecount" : 3,
					"maxclass" : "newobj",
					"numinlets" : 1,
					"numoutlets" : 3,
					"outlettype" : [ "", "", "" ],
					"patching_rect" : [ 344.416748046875, 343.0, 84.0, 49.0 ],
					"restore" : [ 183.679489135742188, 190.741696319580086 ],
					"saved_object_attributes" : 					{
						"parameter_enable" : 0,
						"parameter_mappable" : 0
					}
,
					"text" : "pattr @bindto roi2::start_pos @invisible 1",
					"varname" : "u228000388"
				}

			}
, 			{
				"box" : 				{
					"id" : "obj-117",
					"linecount" : 3,
					"maxclass" : "newobj",
					"numinlets" : 1,
					"numoutlets" : 3,
					"outlettype" : [ "", "", "" ],
					"patching_rect" : [ 245.75, 343.0, 88.0, 49.0 ],
					"restore" : [ 174.308508300781256, 202.705419921875006 ],
					"saved_object_attributes" : 					{
						"parameter_enable" : 0,
						"parameter_mappable" : 0
					}
,
					"text" : "pattr @bindto roi1::start_pos @invisible 1",
					"varname" : "u509000390"
				}

			}
, 			{
				"box" : 				{
					"id" : "obj-84",
					"maxclass" : "newobj",
					"numinlets" : 1,
					"numoutlets" : 2,
					"outlettype" : [ "jit_matrix", "" ],
					"patching_rect" : [ 641.0, 534.0, 149.0, 22.0 ],
					"text" : "jit.matrix 4 float32 320 240"
				}

			}
, 			{
				"box" : 				{
					"id" : "obj-85",
					"maxclass" : "newobj",
					"numinlets" : 1,
					"numoutlets" : 5,
					"outlettype" : [ "jit_matrix", "jit_matrix", "jit_matrix", "jit_matrix", "" ],
					"patching_rect" : [ 641.0, 558.0, 61.0, 22.0 ],
					"text" : "jit.unpack"
				}

			}
, 			{
				"box" : 				{
					"id" : "obj-86",
					"maxclass" : "newobj",
					"numinlets" : 1,
					"numoutlets" : 4,
					"outlettype" : [ "", "", "", "" ],
					"patching_rect" : [ 651.5, 582.0, 50.5, 22.0 ],
					"text" : "jit.3m"
				}

			}
, 			{
				"box" : 				{
					"id" : "obj-87",
					"maxclass" : "newobj",
					"numinlets" : 1,
					"numoutlets" : 2,
					"outlettype" : [ "jit_matrix", "" ],
					"patching_rect" : [ 644.25, 510.0, 89.0, 22.0 ],
					"text" : "jit.gl.asyncread"
				}

			}
, 			{
				"box" : 				{
					"id" : "obj-80",
					"maxclass" : "newobj",
					"numinlets" : 1,
					"numoutlets" : 2,
					"outlettype" : [ "jit_matrix", "" ],
					"patching_rect" : [ 436.0, 534.0, 149.0, 22.0 ],
					"text" : "jit.matrix 4 float32 320 240"
				}

			}
, 			{
				"box" : 				{
					"id" : "obj-81",
					"maxclass" : "newobj",
					"numinlets" : 1,
					"numoutlets" : 5,
					"outlettype" : [ "jit_matrix", "jit_matrix", "jit_matrix", "jit_matrix", "" ],
					"patching_rect" : [ 436.0, 558.0, 61.0, 22.0 ],
					"text" : "jit.unpack"
				}

			}
, 			{
				"box" : 				{
					"id" : "obj-82",
					"maxclass" : "newobj",
					"numinlets" : 1,
					"numoutlets" : 4,
					"outlettype" : [ "", "", "", "" ],
					"patching_rect" : [ 446.5, 582.0, 50.5, 22.0 ],
					"text" : "jit.3m"
				}

			}
, 			{
				"box" : 				{
					"id" : "obj-83",
					"maxclass" : "newobj",
					"numinlets" : 1,
					"numoutlets" : 2,
					"outlettype" : [ "jit_matrix", "" ],
					"patching_rect" : [ 439.25, 510.0, 89.0, 22.0 ],
					"text" : "jit.gl.asyncread"
				}

			}
, 			{
				"box" : 				{
					"id" : "obj-76",
					"maxclass" : "newobj",
					"numinlets" : 1,
					"numoutlets" : 2,
					"outlettype" : [ "jit_matrix", "" ],
					"patching_rect" : [ 231.0, 534.0, 149.0, 22.0 ],
					"text" : "jit.matrix 4 float32 320 240"
				}

			}
, 			{
				"box" : 				{
					"id" : "obj-77",
					"maxclass" : "newobj",
					"numinlets" : 1,
					"numoutlets" : 5,
					"outlettype" : [ "jit_matrix", "jit_matrix", "jit_matrix", "jit_matrix", "" ],
					"patching_rect" : [ 231.0, 558.0, 61.0, 22.0 ],
					"text" : "jit.unpack"
				}

			}
, 			{
				"box" : 				{
					"id" : "obj-78",
					"maxclass" : "newobj",
					"numinlets" : 1,
					"numoutlets" : 4,
					"outlettype" : [ "", "", "", "" ],
					"patching_rect" : [ 241.5, 582.0, 50.5, 22.0 ],
					"text" : "jit.3m"
				}

			}
, 			{
				"box" : 				{
					"id" : "obj-79",
					"maxclass" : "newobj",
					"numinlets" : 1,
					"numoutlets" : 2,
					"outlettype" : [ "jit_matrix", "" ],
					"patching_rect" : [ 234.25, 510.0, 89.0, 22.0 ],
					"text" : "jit.gl.asyncread"
				}

			}
, 			{
				"box" : 				{
					"bgmode" : 0,
					"border" : 0,
					"clickthrough" : 0,
					"enablehscroll" : 0,
					"enablevscroll" : 0,
					"id" : "obj-74",
					"lockeddragscroll" : 0,
					"maxclass" : "bpatcher",
					"name" : "sc.texture.roi.maxpat",
					"numinlets" : 1,
					"numoutlets" : 1,
					"offset" : [ 0.0, 0.0 ],
					"outlettype" : [ "jit_gl_texture" ],
					"patching_rect" : [ 644.25, 413.0, 175.0, 95.0 ],
					"varname" : "roi4",
					"viewvisibility" : 1
				}

			}
, 			{
				"box" : 				{
					"bgmode" : 0,
					"border" : 0,
					"clickthrough" : 0,
					"enablehscroll" : 0,
					"enablevscroll" : 0,
					"id" : "obj-73",
					"lockeddragscroll" : 0,
					"maxclass" : "bpatcher",
					"name" : "sc.texture.roi.maxpat",
					"numinlets" : 1,
					"numoutlets" : 1,
					"offset" : [ 0.0, 0.0 ],
					"outlettype" : [ "jit_gl_texture" ],
					"patching_rect" : [ 439.25, 413.0, 175.0, 95.0 ],
					"varname" : "roi3",
					"viewvisibility" : 1
				}

			}
, 			{
				"box" : 				{
					"bgmode" : 0,
					"border" : 0,
					"clickthrough" : 0,
					"enablehscroll" : 0,
					"enablevscroll" : 0,
					"id" : "obj-72",
					"lockeddragscroll" : 0,
					"maxclass" : "bpatcher",
					"name" : "sc.texture.roi.maxpat",
					"numinlets" : 1,
					"numoutlets" : 1,
					"offset" : [ 0.0, 0.0 ],
					"outlettype" : [ "jit_gl_texture" ],
					"patching_rect" : [ 234.25, 413.0, 175.0, 95.0 ],
					"varname" : "roi2",
					"viewvisibility" : 1
				}

			}
, 			{
				"box" : 				{
					"bgmode" : 0,
					"border" : 0,
					"clickthrough" : 0,
					"enablehscroll" : 0,
					"enablevscroll" : 0,
					"id" : "obj-71",
					"lockeddragscroll" : 0,
					"maxclass" : "bpatcher",
					"name" : "sc.texture.roi.maxpat",
					"numinlets" : 1,
					"numoutlets" : 1,
					"offset" : [ 0.0, 0.0 ],
					"outlettype" : [ "jit_gl_texture" ],
					"patching_rect" : [ 29.25, 413.0, 175.0, 95.0 ],
					"varname" : "roi1",
					"viewvisibility" : 1
				}

			}
, 			{
				"box" : 				{
					"id" : "obj-61",
					"maxclass" : "newobj",
					"numinlets" : 1,
					"numoutlets" : 1,
					"outlettype" : [ "FullPacket" ],
					"patching_rect" : [ 47.0, 713.0, 144.0, 22.0 ],
					"text" : "sc.net.send @type sound"
				}

			}
, 			{
				"box" : 				{
					"id" : "obj-60",
					"maxclass" : "newobj",
					"numinlets" : 1,
					"numoutlets" : 1,
					"outlettype" : [ "FullPacket" ],
					"patching_rect" : [ 47.0, 662.0, 133.0, 22.0 ],
					"text" : "o.pack /string/velocities"
				}

			}
, 			{
				"box" : 				{
					"id" : "obj-59",
					"maxclass" : "newobj",
					"numinlets" : 4,
					"numoutlets" : 1,
					"outlettype" : [ "" ],
					"patching_rect" : [ 47.0, 621.0, 313.0, 22.0 ],
					"text" : "pak 0. 0. 0. 0."
				}

			}
, 			{
				"box" : 				{
					"id" : "obj-18",
					"maxclass" : "newobj",
					"numinlets" : 1,
					"numoutlets" : 2,
					"outlettype" : [ "", "FullPacket" ],
					"patching_rect" : [ 246.0, 17.0, 82.0, 22.0 ],
					"text" : "o.route /string"
				}

			}
, 			{
				"box" : 				{
					"id" : "obj-17",
					"maxclass" : "newobj",
					"numinlets" : 0,
					"numoutlets" : 1,
					"outlettype" : [ "" ],
					"patching_rect" : [ 246.0, -7.0, 157.0, 22.0 ],
					"text" : "sc.net.receive @type sound"
				}

			}
, 			{
				"box" : 				{
					"id" : "obj-15",
					"maxclass" : "newobj",
					"numinlets" : 1,
					"numoutlets" : 2,
					"outlettype" : [ "jit_matrix", "" ],
					"patching_rect" : [ 26.0, 534.0, 149.0, 22.0 ],
					"text" : "jit.matrix 4 float32 320 240"
				}

			}
, 			{
				"box" : 				{
					"id" : "obj-11",
					"maxclass" : "newobj",
					"numinlets" : 1,
					"numoutlets" : 5,
					"outlettype" : [ "jit_matrix", "jit_matrix", "jit_matrix", "jit_matrix", "" ],
					"patching_rect" : [ 26.0, 558.0, 61.0, 22.0 ],
					"text" : "jit.unpack"
				}

			}
, 			{
				"box" : 				{
					"id" : "obj-10",
					"maxclass" : "newobj",
					"numinlets" : 1,
					"numoutlets" : 2,
					"outlettype" : [ "jit_gl_texture", "" ],
					"patching_rect" : [ 29.25, 254.0, 114.0, 22.0 ],
					"text" : "sc.texture.rgb2luma",
					"varname" : "sc.texture.rgb2luma"
				}

			}
, 			{
				"box" : 				{
					"id" : "obj-7",
					"maxclass" : "newobj",
					"numinlets" : 1,
					"numoutlets" : 4,
					"outlettype" : [ "", "", "", "" ],
					"patching_rect" : [ 36.5, 582.0, 50.5, 22.0 ],
					"text" : "jit.3m"
				}

			}
, 			{
				"box" : 				{
					"id" : "obj-6",
					"maxclass" : "newobj",
					"numinlets" : 1,
					"numoutlets" : 2,
					"outlettype" : [ "jit_matrix", "" ],
					"patching_rect" : [ 29.25, 510.0, 89.0, 22.0 ],
					"text" : "jit.gl.asyncread"
				}

			}
, 			{
				"box" : 				{
					"id" : "obj-4",
					"maxclass" : "toggle",
					"numinlets" : 1,
					"numoutlets" : 1,
					"outlettype" : [ "int" ],
					"parameter_enable" : 0,
					"patching_rect" : [ 14.25, 83.0, 24.0, 24.0 ]
				}

			}
, 			{
				"box" : 				{
					"id" : "obj-2",
					"maxclass" : "newobj",
					"numinlets" : 1,
					"numoutlets" : 3,
					"outlettype" : [ "", "bang", "" ],
					"patching_rect" : [ 14.25, 109.0, 49.0, 22.0 ],
					"text" : "jit.world"
				}

			}
, 			{
				"box" : 				{
					"bgmode" : 0,
					"border" : 0,
					"clickthrough" : 0,
					"enablehscroll" : 0,
					"enablevscroll" : 0,
					"id" : "obj-1",
					"lockeddragscroll" : 0,
					"maxclass" : "bpatcher",
					"name" : "sc.texture.syphon.input.maxpat",
					"numinlets" : 1,
					"numoutlets" : 1,
					"offset" : [ 0.0, 0.0 ],
					"outlettype" : [ "jit_gl_texture" ],
					"patching_rect" : [ 36.5, 146.0, 204.0, 119.0 ],
					"presentation" : 1,
					"presentation_rect" : [ 4.583332061767578, 5.0, 199.0, 113.0 ],
					"varname" : "sc.texture.syphon.input",
					"viewvisibility" : 1
				}

			}
 ],
		"lines" : [ 			{
				"patchline" : 				{
					"destination" : [ "obj-10", 0 ],
					"source" : [ "obj-1", 0 ]
				}

			}
, 			{
				"patchline" : 				{
					"destination" : [ "obj-71", 0 ],
					"midpoints" : [ 38.75, 398.0, 38.75, 398.0 ],
					"order" : 3,
					"source" : [ "obj-10", 0 ]
				}

			}
, 			{
				"patchline" : 				{
					"destination" : [ "obj-72", 0 ],
					"midpoints" : [ 38.75, 398.0, 243.75, 398.0 ],
					"order" : 2,
					"source" : [ "obj-10", 0 ]
				}

			}
, 			{
				"patchline" : 				{
					"destination" : [ "obj-73", 0 ],
					"midpoints" : [ 38.75, 398.0, 448.75, 398.0 ],
					"order" : 1,
					"source" : [ "obj-10", 0 ]
				}

			}
, 			{
				"patchline" : 				{
					"destination" : [ "obj-74", 0 ],
					"midpoints" : [ 38.75, 398.5, 653.75, 398.5 ],
					"order" : 0,
					"source" : [ "obj-10", 0 ]
				}

			}
, 			{
				"patchline" : 				{
					"destination" : [ "obj-7", 0 ],
					"source" : [ "obj-11", 1 ]
				}

			}
, 			{
				"patchline" : 				{
					"destination" : [ "obj-130", 0 ],
					"order" : 1,
					"source" : [ "obj-120", 0 ]
				}

			}
, 			{
				"patchline" : 				{
					"destination" : [ "obj-131", 0 ],
					"order" : 1,
					"source" : [ "obj-120", 1 ]
				}

			}
, 			{
				"patchline" : 				{
					"destination" : [ "obj-132", 0 ],
					"order" : 1,
					"source" : [ "obj-120", 2 ]
				}

			}
, 			{
				"patchline" : 				{
					"destination" : [ "obj-133", 0 ],
					"order" : 1,
					"source" : [ "obj-120", 3 ]
				}

			}
, 			{
				"patchline" : 				{
					"destination" : [ "obj-49", 0 ],
					"order" : 0,
					"source" : [ "obj-120", 0 ]
				}

			}
, 			{
				"patchline" : 				{
					"destination" : [ "obj-52", 0 ],
					"order" : 0,
					"source" : [ "obj-120", 1 ]
				}

			}
, 			{
				"patchline" : 				{
					"destination" : [ "obj-55", 0 ],
					"order" : 0,
					"source" : [ "obj-120", 3 ]
				}

			}
, 			{
				"patchline" : 				{
					"destination" : [ "obj-58", 0 ],
					"order" : 0,
					"source" : [ "obj-120", 2 ]
				}

			}
, 			{
				"patchline" : 				{
					"destination" : [ "obj-120", 0 ],
					"source" : [ "obj-121", 0 ]
				}

			}
, 			{
				"patchline" : 				{
					"destination" : [ "obj-129", 0 ],
					"source" : [ "obj-128", 0 ]
				}

			}
, 			{
				"patchline" : 				{
					"destination" : [ "obj-130", 1 ],
					"order" : 1,
					"source" : [ "obj-129", 0 ]
				}

			}
, 			{
				"patchline" : 				{
					"destination" : [ "obj-131", 1 ],
					"order" : 1,
					"source" : [ "obj-129", 1 ]
				}

			}
, 			{
				"patchline" : 				{
					"destination" : [ "obj-132", 1 ],
					"order" : 1,
					"source" : [ "obj-129", 2 ]
				}

			}
, 			{
				"patchline" : 				{
					"destination" : [ "obj-133", 1 ],
					"order" : 1,
					"source" : [ "obj-129", 3 ]
				}

			}
, 			{
				"patchline" : 				{
					"destination" : [ "obj-50", 0 ],
					"order" : 0,
					"source" : [ "obj-129", 0 ]
				}

			}
, 			{
				"patchline" : 				{
					"destination" : [ "obj-51", 0 ],
					"order" : 0,
					"source" : [ "obj-129", 1 ]
				}

			}
, 			{
				"patchline" : 				{
					"destination" : [ "obj-54", 0 ],
					"order" : 0,
					"source" : [ "obj-129", 3 ]
				}

			}
, 			{
				"patchline" : 				{
					"destination" : [ "obj-57", 0 ],
					"order" : 0,
					"source" : [ "obj-129", 2 ]
				}

			}
, 			{
				"patchline" : 				{
					"destination" : [ "obj-117", 0 ],
					"source" : [ "obj-130", 0 ]
				}

			}
, 			{
				"patchline" : 				{
					"destination" : [ "obj-116", 0 ],
					"source" : [ "obj-131", 0 ]
				}

			}
, 			{
				"patchline" : 				{
					"destination" : [ "obj-115", 0 ],
					"source" : [ "obj-132", 0 ]
				}

			}
, 			{
				"patchline" : 				{
					"destination" : [ "obj-114", 0 ],
					"source" : [ "obj-133", 0 ]
				}

			}
, 			{
				"patchline" : 				{
					"destination" : [ "obj-5", 0 ],
					"source" : [ "obj-134", 0 ]
				}

			}
, 			{
				"patchline" : 				{
					"destination" : [ "obj-11", 0 ],
					"order" : 1,
					"source" : [ "obj-15", 0 ]
				}

			}
, 			{
				"patchline" : 				{
					"destination" : [ "obj-198", 0 ],
					"order" : 0,
					"source" : [ "obj-15", 0 ]
				}

			}
, 			{
				"patchline" : 				{
					"destination" : [ "obj-18", 0 ],
					"source" : [ "obj-17", 0 ]
				}

			}
, 			{
				"patchline" : 				{
					"destination" : [ "obj-173", 0 ],
					"order" : 3,
					"source" : [ "obj-172", 0 ]
				}

			}
, 			{
				"patchline" : 				{
					"destination" : [ "obj-174", 0 ],
					"midpoints" : [ 637.0, 246.0, 758.5, 246.0 ],
					"order" : 2,
					"source" : [ "obj-172", 0 ]
				}

			}
, 			{
				"patchline" : 				{
					"destination" : [ "obj-176", 0 ],
					"midpoints" : [ 637.0, 246.0, 867.75, 246.0 ],
					"order" : 1,
					"source" : [ "obj-172", 0 ]
				}

			}
, 			{
				"patchline" : 				{
					"destination" : [ "obj-177", 0 ],
					"midpoints" : [ 637.0, 246.0, 985.75, 246.0 ],
					"order" : 0,
					"source" : [ "obj-172", 0 ]
				}

			}
, 			{
				"patchline" : 				{
					"destination" : [ "obj-178", 0 ],
					"source" : [ "obj-173", 0 ]
				}

			}
, 			{
				"patchline" : 				{
					"destination" : [ "obj-179", 0 ],
					"source" : [ "obj-174", 0 ]
				}

			}
, 			{
				"patchline" : 				{
					"destination" : [ "obj-180", 0 ],
					"source" : [ "obj-176", 0 ]
				}

			}
, 			{
				"patchline" : 				{
					"destination" : [ "obj-181", 0 ],
					"source" : [ "obj-177", 0 ]
				}

			}
, 			{
				"patchline" : 				{
					"destination" : [ "obj-183", 0 ],
					"source" : [ "obj-178", 0 ]
				}

			}
, 			{
				"patchline" : 				{
					"destination" : [ "obj-184", 0 ],
					"source" : [ "obj-178", 1 ]
				}

			}
, 			{
				"patchline" : 				{
					"destination" : [ "obj-185", 0 ],
					"source" : [ "obj-179", 1 ]
				}

			}
, 			{
				"patchline" : 				{
					"destination" : [ "obj-186", 0 ],
					"source" : [ "obj-179", 0 ]
				}

			}
, 			{
				"patchline" : 				{
					"destination" : [ "obj-134", 0 ],
					"source" : [ "obj-18", 0 ]
				}

			}
, 			{
				"patchline" : 				{
					"destination" : [ "obj-187", 0 ],
					"source" : [ "obj-180", 1 ]
				}

			}
, 			{
				"patchline" : 				{
					"destination" : [ "obj-188", 0 ],
					"source" : [ "obj-180", 0 ]
				}

			}
, 			{
				"patchline" : 				{
					"destination" : [ "obj-189", 0 ],
					"source" : [ "obj-181", 1 ]
				}

			}
, 			{
				"patchline" : 				{
					"destination" : [ "obj-190", 0 ],
					"source" : [ "obj-181", 0 ]
				}

			}
, 			{
				"patchline" : 				{
					"destination" : [ "obj-168", 0 ],
					"source" : [ "obj-183", 0 ]
				}

			}
, 			{
				"patchline" : 				{
					"destination" : [ "obj-168", 0 ],
					"source" : [ "obj-184", 0 ]
				}

			}
, 			{
				"patchline" : 				{
					"destination" : [ "obj-169", 0 ],
					"source" : [ "obj-185", 0 ]
				}

			}
, 			{
				"patchline" : 				{
					"destination" : [ "obj-169", 0 ],
					"source" : [ "obj-186", 0 ]
				}

			}
, 			{
				"patchline" : 				{
					"destination" : [ "obj-170", 0 ],
					"source" : [ "obj-187", 0 ]
				}

			}
, 			{
				"patchline" : 				{
					"destination" : [ "obj-170", 0 ],
					"source" : [ "obj-188", 0 ]
				}

			}
, 			{
				"patchline" : 				{
					"destination" : [ "obj-171", 0 ],
					"source" : [ "obj-189", 0 ]
				}

			}
, 			{
				"patchline" : 				{
					"destination" : [ "obj-171", 0 ],
					"source" : [ "obj-190", 0 ]
				}

			}
, 			{
				"patchline" : 				{
					"destination" : [ "obj-1", 0 ],
					"source" : [ "obj-2", 1 ]
				}

			}
, 			{
				"patchline" : 				{
					"destination" : [ "obj-121", 0 ],
					"source" : [ "obj-24", 0 ]
				}

			}
, 			{
				"patchline" : 				{
					"destination" : [ "obj-128", 0 ],
					"order" : 1,
					"source" : [ "obj-25", 0 ]
				}

			}
, 			{
				"patchline" : 				{
					"destination" : [ "obj-172", 0 ],
					"order" : 0,
					"source" : [ "obj-25", 0 ]
				}

			}
, 			{
				"patchline" : 				{
					"destination" : [ "obj-24", 0 ],
					"order" : 1,
					"source" : [ "obj-27", 0 ]
				}

			}
, 			{
				"patchline" : 				{
					"destination" : [ "obj-25", 0 ],
					"order" : 0,
					"source" : [ "obj-27", 0 ]
				}

			}
, 			{
				"patchline" : 				{
					"destination" : [ "obj-25", 0 ],
					"order" : 0,
					"source" : [ "obj-28", 0 ]
				}

			}
, 			{
				"patchline" : 				{
					"destination" : [ "obj-27", 0 ],
					"order" : 1,
					"source" : [ "obj-28", 0 ]
				}

			}
, 			{
				"patchline" : 				{
					"destination" : [ "obj-24", 2 ],
					"order" : 1,
					"source" : [ "obj-33", 1 ]
				}

			}
, 			{
				"patchline" : 				{
					"destination" : [ "obj-24", 1 ],
					"order" : 0,
					"source" : [ "obj-33", 0 ]
				}

			}
, 			{
				"patchline" : 				{
					"destination" : [ "obj-25", 1 ],
					"order" : 0,
					"source" : [ "obj-33", 1 ]
				}

			}
, 			{
				"patchline" : 				{
					"destination" : [ "obj-28", 0 ],
					"order" : 1,
					"source" : [ "obj-33", 0 ]
				}

			}
, 			{
				"patchline" : 				{
					"destination" : [ "obj-25", 2 ],
					"source" : [ "obj-34", 1 ]
				}

			}
, 			{
				"patchline" : 				{
					"destination" : [ "obj-25", 1 ],
					"source" : [ "obj-34", 0 ]
				}

			}
, 			{
				"patchline" : 				{
					"destination" : [ "obj-2", 0 ],
					"source" : [ "obj-4", 0 ]
				}

			}
, 			{
				"patchline" : 				{
					"destination" : [ "obj-48", 0 ],
					"source" : [ "obj-49", 0 ]
				}

			}
, 			{
				"patchline" : 				{
					"destination" : [ "obj-33", 0 ],
					"source" : [ "obj-5", 0 ]
				}

			}
, 			{
				"patchline" : 				{
					"destination" : [ "obj-34", 0 ],
					"source" : [ "obj-5", 1 ]
				}

			}
, 			{
				"patchline" : 				{
					"destination" : [ "obj-48", 1 ],
					"source" : [ "obj-50", 0 ]
				}

			}
, 			{
				"patchline" : 				{
					"destination" : [ "obj-53", 1 ],
					"source" : [ "obj-51", 0 ]
				}

			}
, 			{
				"patchline" : 				{
					"destination" : [ "obj-53", 0 ],
					"source" : [ "obj-52", 0 ]
				}

			}
, 			{
				"patchline" : 				{
					"destination" : [ "obj-56", 1 ],
					"source" : [ "obj-54", 0 ]
				}

			}
, 			{
				"patchline" : 				{
					"destination" : [ "obj-56", 0 ],
					"source" : [ "obj-55", 0 ]
				}

			}
, 			{
				"patchline" : 				{
					"destination" : [ "obj-62", 1 ],
					"source" : [ "obj-57", 0 ]
				}

			}
, 			{
				"patchline" : 				{
					"destination" : [ "obj-62", 0 ],
					"source" : [ "obj-58", 0 ]
				}

			}
, 			{
				"patchline" : 				{
					"destination" : [ "obj-60", 0 ],
					"source" : [ "obj-59", 0 ]
				}

			}
, 			{
				"patchline" : 				{
					"destination" : [ "obj-15", 0 ],
					"source" : [ "obj-6", 0 ]
				}

			}
, 			{
				"patchline" : 				{
					"destination" : [ "obj-193", 0 ],
					"order" : 0,
					"source" : [ "obj-60", 0 ]
				}

			}
, 			{
				"patchline" : 				{
					"destination" : [ "obj-61", 0 ],
					"order" : 1,
					"source" : [ "obj-60", 0 ]
				}

			}
, 			{
				"patchline" : 				{
					"destination" : [ "obj-59", 0 ],
					"source" : [ "obj-7", 1 ]
				}

			}
, 			{
				"patchline" : 				{
					"destination" : [ "obj-6", 0 ],
					"source" : [ "obj-71", 0 ]
				}

			}
, 			{
				"patchline" : 				{
					"destination" : [ "obj-79", 0 ],
					"source" : [ "obj-72", 0 ]
				}

			}
, 			{
				"patchline" : 				{
					"destination" : [ "obj-83", 0 ],
					"source" : [ "obj-73", 0 ]
				}

			}
, 			{
				"patchline" : 				{
					"destination" : [ "obj-87", 0 ],
					"source" : [ "obj-74", 0 ]
				}

			}
, 			{
				"patchline" : 				{
					"destination" : [ "obj-199", 0 ],
					"order" : 0,
					"source" : [ "obj-76", 0 ]
				}

			}
, 			{
				"patchline" : 				{
					"destination" : [ "obj-77", 0 ],
					"order" : 1,
					"source" : [ "obj-76", 0 ]
				}

			}
, 			{
				"patchline" : 				{
					"destination" : [ "obj-78", 0 ],
					"source" : [ "obj-77", 1 ]
				}

			}
, 			{
				"patchline" : 				{
					"destination" : [ "obj-59", 1 ],
					"source" : [ "obj-78", 1 ]
				}

			}
, 			{
				"patchline" : 				{
					"destination" : [ "obj-76", 0 ],
					"source" : [ "obj-79", 0 ]
				}

			}
, 			{
				"patchline" : 				{
					"destination" : [ "obj-200", 0 ],
					"order" : 0,
					"source" : [ "obj-80", 0 ]
				}

			}
, 			{
				"patchline" : 				{
					"destination" : [ "obj-81", 0 ],
					"order" : 1,
					"source" : [ "obj-80", 0 ]
				}

			}
, 			{
				"patchline" : 				{
					"destination" : [ "obj-82", 0 ],
					"source" : [ "obj-81", 1 ]
				}

			}
, 			{
				"patchline" : 				{
					"destination" : [ "obj-59", 2 ],
					"source" : [ "obj-82", 1 ]
				}

			}
, 			{
				"patchline" : 				{
					"destination" : [ "obj-80", 0 ],
					"source" : [ "obj-83", 0 ]
				}

			}
, 			{
				"patchline" : 				{
					"destination" : [ "obj-201", 0 ],
					"order" : 0,
					"source" : [ "obj-84", 0 ]
				}

			}
, 			{
				"patchline" : 				{
					"destination" : [ "obj-85", 0 ],
					"order" : 1,
					"source" : [ "obj-84", 0 ]
				}

			}
, 			{
				"patchline" : 				{
					"destination" : [ "obj-86", 0 ],
					"source" : [ "obj-85", 1 ]
				}

			}
, 			{
				"patchline" : 				{
					"destination" : [ "obj-59", 3 ],
					"source" : [ "obj-86", 1 ]
				}

			}
, 			{
				"patchline" : 				{
					"destination" : [ "obj-84", 0 ],
					"source" : [ "obj-87", 0 ]
				}

			}
 ],
		"dependency_cache" : [ 			{
				"name" : "sc.texture.syphon.input.maxpat",
				"bootpath" : "~/Documents/Max 8/Packages/SC/patchers/video/texture",
				"patcherrelativepath" : "../../SC/patchers/video/texture",
				"type" : "JSON",
				"implicit" : 1
			}
, 			{
				"name" : "sc.texture.rgb2luma.maxpat",
				"bootpath" : "~/Documents/Max 8/Packages/SC/patchers/video/texture",
				"patcherrelativepath" : "../../SC/patchers/video/texture",
				"type" : "JSON",
				"implicit" : 1
			}
, 			{
				"name" : "sc.rgb2luma.genjit",
				"bootpath" : "~/Documents/Max 8/Packages/SC/code",
				"patcherrelativepath" : "../../SC/code",
				"type" : "gJIT",
				"implicit" : 1
			}
, 			{
				"name" : "bypass_dummy.genjit",
				"bootpath" : "~/Documents/Max 8/Packages/SC/code",
				"patcherrelativepath" : "../../SC/code",
				"type" : "gJIT",
				"implicit" : 1
			}
, 			{
				"name" : "thru.maxpat",
				"bootpath" : "C74:/patchers/m4l/Pluggo for Live resources/patches",
				"type" : "JSON",
				"implicit" : 1
			}
, 			{
				"name" : "sc.net.receive.maxpat",
				"bootpath" : "~/Documents/Max 8/Packages/SC/patchers/utilities",
				"patcherrelativepath" : "../../SC/patchers/utilities",
				"type" : "JSON",
				"implicit" : 1
			}
, 			{
				"name" : "sc.net.send.maxpat",
				"bootpath" : "~/Documents/Max 8/Packages/SC/patchers/utilities",
				"patcherrelativepath" : "../../SC/patchers/utilities",
				"type" : "JSON",
				"implicit" : 1
			}
, 			{
				"name" : "sc.texture.roi.maxpat",
				"bootpath" : "~/Documents/Max 8/Packages/SC/patchers/video/texture",
				"patcherrelativepath" : "../../SC/patchers/video/texture",
				"type" : "JSON",
				"implicit" : 1
			}
, 			{
				"name" : "jit.gl.syphonclient.mxo",
				"type" : "iLaX"
			}
, 			{
				"name" : "o.route.mxo",
				"type" : "iLaX"
			}
, 			{
				"name" : "o.pack.mxo",
				"type" : "iLaX"
			}
, 			{
				"name" : "o.display.mxo",
				"type" : "iLaX"
			}
 ],
		"autosave" : 0
	}

}
